<?xml version="1.0" encoding="UTF-8" standalone="no"?>
<!DOCTYPE svg PUBLIC "-//W3C//DTD SVG 1.1//EN" "http://www.w3.org/Graphics/SVG/1.1/DTD/svg11.dtd">
<svg xmlns="http://www.w3.org/2000/svg" version="1.1" viewBox="0 0 1000 1000">
<g stroke-width="2.00" fill="none" stroke-linecap="butt">
<path stroke="#6f6f6f" vector-effect="non-scaling-stroke" d="
  M 749.75 643.32
  Q 768.84 632.50 772.92 629.92
  C 808.35 607.43 821.65 562.23 801.73 524.79
  Q 799.16 519.97 787.75 500.43
  A 0.86 0.86 -0.0 0 1 787.75 499.57
  C 793.59 489.49 800.86 478.02 804.77 468.60
  C 819.72 432.67 806.68 391.73 773.69 370.55
  Q 770.03 368.20 749.42 356.46
  A 0.83 0.82 -75.1 0 1 749.00 355.72
  Q 749.27 329.51 748.77 324.26
  C 745.25 287.66 718.64 258.12 682.41 252.12
  C 671.33 250.28 656.83 250.96 644.25 251.01
  A 0.85 0.84 -14.3 0 1 643.51 250.58
  Q 631.34 229.00 628.27 224.49
  C 604.09 188.98 558.93 179.04 521.61 200.16
  Q 511.02 206.15 500.47 212.22
  A 0.93 0.90 44.8 0 1 499.54 212.21
  Q 488.62 205.86 477.60 199.71
  C 444.12 181.06 403.33 187.43 378.06 216.29
  C 370.19 225.28 363.11 238.85 356.63 250.36
  A 1.23 1.21 -75.2 0 1 355.57 250.99
  Q 343.60 251.02 331.24 251.04
  C 291.39 251.10 258.76 278.89 252.07 318.17
  C 250.20 329.19 251.05 343.36 250.99 355.73
  A 0.88 0.87 75.3 0 1 250.55 356.49
  C 239.57 362.80 226.53 369.58 217.80 376.78
  C 191.71 398.32 181.98 435.07 194.41 466.70
  C 198.37 476.78 206.03 488.92 212.23 499.50
  A 0.92 0.92 45.0 0 1 212.23 500.44
  Q 205.71 511.61 199.44 522.87
  C 179.08 559.41 189.80 605.60 224.80 628.45
  Q 229.28 631.38 250.55 643.50
  A 0.88 0.87 -75.3 0 1 250.99 644.26
  C 251.03 656.26 250.32 670.16 251.88 680.70
  C 257.56 719.02 289.24 747.46 328.31 748.92
  Q 332.91 749.10 355.74 749.00
  A 0.84 0.84 75.7 0 1 356.48 749.44
  Q 367.93 769.53 371.05 774.45
  C 392.90 808.92 436.96 819.98 473.44 802.66
  Q 477.97 800.51 499.58 787.75
  A 0.86 0.86 0.0 0 1 500.44 787.75
  Q 521.69 800.21 525.75 802.25
  C 559.30 819.06 599.54 810.75 623.22 782.18
  C 630.48 773.41 637.21 760.44 643.51 749.45
  A 0.88 0.87 14.7 0 1 644.27 749.01
  Q 656.88 748.99 669.50 748.88
  C 708.99 748.53 741.52 720.66 747.94 681.85
  C 749.74 670.97 748.83 656.59 749.29 644.07
  A 0.90 0.88 77.1 0 1 749.75 643.32"
/>
<path stroke="#6f6f6f" vector-effect="non-scaling-stroke" d="
  M 407.88 202.70
  C 385.72 212.47 375.89 229.86 364.74 250.50
  A 0.31 0.30 14.3 0 0 365.01 250.94
  Q 398.18 251.08 431.35 250.95
  Q 433.43 250.95 435.25 249.90
  Q 463.80 233.38 492.37 216.82
  A 0.31 0.30 -44.4 0 0 492.38 216.30
  Q 474.86 205.41 468.20 202.53
  Q 437.98 189.43 407.88 202.70"
/>
<path stroke="#6f6f6f" vector-effect="non-scaling-stroke" d="
  M 623.37 229.91
  C 603.04 196.89 560.40 187.02 527.11 205.22
  Q 517.15 210.66 507.31 216.30
  Q 506.97 216.49 507.31 216.69
  Q 536.16 233.33 565.00 249.98
  Q 566.76 250.99 568.78 250.99
  Q 601.83 251.04 634.98 250.95
  A 0.30 0.30 -14.0 0 0 635.25 250.51
  Q 629.59 239.99 623.37 229.91"
/>
<path stroke="#6f6f6f" vector-effect="non-scaling-stroke" d="
  M 551.70 250.26
  L 500.39 220.77
  A 0.87 0.86 -45.3 0 0 499.53 220.78
  L 447.82 250.63
  Q 447.18 251.00 447.92 251.00
  L 551.50 251.00
  Q 552.97 251.00 551.70 250.26"
/>
<path stroke="#6f6f6f" vector-effect="non-scaling-stroke" d="
  M 359.84 258.63
  Q 345.09 284.03 330.52 309.56
  Q 329.86 310.71 331.02 310.05
  L 420.44 258.40
  Q 421.15 257.99 420.33 257.99
  L 360.71 258.00
  A 0.86 0.79 17.3 0 0 360.05 258.31
  Q 359.93 258.48 359.84 258.63"
/>
<path stroke="#6f6f6f" vector-effect="non-scaling-stroke" d="
  M 323.03 677.33
  L 434.57 741.73
  Q 435.01 741.98 435.52 741.98
  Q 499.26 742.04 562.96 741.98
  Q 564.99 741.97 566.75 740.96
  Q 621.74 709.19 676.75 677.44
  A 1.98 1.88 -1.6 0 0 677.44 676.75
  Q 709.20 621.74 740.96 566.71
  Q 741.98 564.95 741.98 562.92
  Q 742.03 499.97 741.98 437.04
  Q 741.98 435.01 740.96 433.25
  Q 709.17 378.27 677.44 323.24
  A 1.83 1.74 88.5 0 0 676.76 322.56
  Q 621.75 290.80 566.74 259.03
  Q 564.99 258.02 562.96 258.02
  Q 499.22 257.98 435.51 258.01
  Q 435.01 258.01 434.57 258.26
  L 323.25 322.56
  Q 322.81 322.82 322.56 323.25
  Q 290.80 378.26 259.04 433.29
  Q 258.02 435.05 258.02 437.08
  Q 257.97 500.03 258.02 562.96
  Q 258.02 564.99 259.04 566.74
  Q 290.94 621.95 322.73 677.02
  A 0.83 0.77 88.8 0 0 323.03 677.33"
/>
<path stroke="#6f6f6f" vector-effect="non-scaling-stroke" d="
  M 324.50 258.25
  C 288.37 261.73 259.89 290.47 258.12 326.84
  Q 257.64 336.64 258.21 351.53
  A 0.31 0.31 74.2 0 0 258.67 351.79
  Q 287.22 335.31 315.84 318.84
  Q 317.60 317.82 318.62 316.07
  Q 335.26 287.45 351.76 258.65
  A 0.31 0.30 -73.9 0 0 351.51 258.19
  Q 332.70 257.46 324.50 258.25"
/>
<path stroke="#6f6f6f" vector-effect="non-scaling-stroke" d="
  M 579.92 258.55
  L 669.64 310.39
  Q 670.15 310.68 669.86 310.18
  L 639.98 258.45
  A 0.87 0.86 75.0 0 0 639.23 258.01
  L 580.07 258.00
  Q 578.97 258.00 579.92 258.55"
/>
<path stroke="#6f6f6f" vector-effect="non-scaling-stroke" d="
  M 682.64 317.98
  C 702.43 328.63 721.83 340.53 741.36 351.76
  A 0.31 0.30 -74.2 0 0 741.81 351.50
  Q 742.10 342.82 741.98 330.75
  C 741.58 291.45 711.81 260.17 672.44 258.01
  Q 668.11 257.78 648.46 258.11
  A 0.30 0.29 -14.7 0 0 648.20 258.55
  L 682.23 317.58
  A 1.00 0.94 0.8 0 0 682.64 317.98"
/>
<path stroke="#6f6f6f" vector-effect="non-scaling-stroke" d="
  M 258.73 419.96
  L 310.30 330.55
  Q 310.70 329.86 310.01 330.26
  L 258.45 360.03
  A 0.87 0.86 75.0 0 0 258.02 360.78
  L 258.01 419.76
  Q 258.01 421.20 258.73 419.96"
/>
<path stroke="#6f6f6f" vector-effect="non-scaling-stroke" d="
  M 690.25 330.35
  A 0.31 0.31 85.2 0 0 689.83 330.77
  L 741.43 420.16
  A 0.31 0.31 30.9 0 0 742.01 420.00
  L 742.00 360.42
  A 0.31 0.31 15.0 0 0 741.85 360.15
  L 690.25 330.35"
/>
<path stroke="#6f6f6f" vector-effect="non-scaling-stroke" d="
  M 229.79 376.81
  C 198.47 395.80 188.34 435.41 202.47 468.02
  Q 205.25 474.46 216.31 492.37
  A 0.31 0.30 -45.6 0 0 216.83 492.36
  Q 233.46 463.74 249.97 435.02
  Q 251.01 433.21 251.01 431.13
  Q 250.99 398.06 251.00 364.98
  A 0.37 0.36 75.3 0 0 250.46 364.66
  Q 240.15 370.54 229.79 376.81"
/>
<path stroke="#6f6f6f" vector-effect="non-scaling-stroke" d="
  M 780.87 384.88
  C 772.06 376.61 760.23 370.55 749.83 364.75
  A 0.56 0.55 -75.5 0 0 749.01 365.24
  Q 748.99 398.23 749.01 431.21
  Q 749.01 433.25 750.02 435.01
  Q 766.54 463.70 783.20 492.36
  A 0.30 0.29 45.9 0 0 783.71 492.37
  Q 789.42 483.02 794.69 473.45
  C 810.89 444.04 805.40 407.88 780.87 384.88"
/>
<path stroke="#6f6f6f" vector-effect="non-scaling-stroke" d="
  M 250.42 551.78
  A 0.31 0.31 33.5 0 0 251.00 551.63
  L 251.00 448.41
  A 0.31 0.31 -29.8 0 0 250.42 448.26
  L 220.59 499.86
  A 0.31 0.31 0.0 0 0 220.59 500.18
  L 250.42 551.78"
/>
<path stroke="#6f6f6f" vector-effect="non-scaling-stroke" d="
  M 749.63 448.34
  A 0.34 0.34 -59.9 0 0 749.00 448.51
  L 749.00 551.45
  A 0.34 0.34 60.0 0 0 749.63 551.62
  L 779.41 500.15
  A 0.34 0.34 -45.0 0 0 779.41 499.81
  L 749.63 448.34"
/>
<path stroke="#6f6f6f" vector-effect="non-scaling-stroke" d="
  M 202.56 531.80
  C 188.15 564.34 198.57 603.99 229.46 623.04
  Q 239.79 629.40 250.51 635.24
  A 0.30 0.30 -76.0 0 0 250.95 634.97
  Q 251.04 601.90 250.99 568.83
  Q 250.99 566.75 249.95 564.95
  Q 233.42 536.29 216.83 507.63
  A 0.31 0.30 46.8 0 0 216.31 507.61
  Q 205.81 524.44 202.56 531.80"
/>
<path stroke="#6f6f6f" vector-effect="non-scaling-stroke" d="
  M 783.17 507.54
  Q 766.57 536.35 750.10 564.77
  Q 749.05 566.57 749.05 568.66
  Q 748.95 601.83 749.02 635.02
  Q 749.02 635.72 749.63 635.37
  C 757.88 630.56 767.76 625.36 774.45 620.39
  C 804.04 598.38 812.62 558.41 794.38 526.08
  Q 789.12 516.76 783.85 507.54
  Q 783.51 506.95 783.17 507.54"
/>
<path stroke="#6f6f6f" vector-effect="non-scaling-stroke" d="
  M 309.73 669.60
  A 0.31 0.31 1.2 0 0 310.15 669.18
  L 258.58 579.86
  A 0.31 0.31 -60.1 0 0 258.00 580.01
  L 258.01 639.56
  A 0.31 0.31 -75.0 0 0 258.16 639.83
  L 309.73 669.60"
/>
<path stroke="#6f6f6f" vector-effect="non-scaling-stroke" d="
  M 741.97 580.10
  A 0.32 0.32 -30.9 0 0 741.37 579.94
  L 689.82 669.23
  A 0.32 0.32 89.0 0 0 690.26 669.66
  L 741.82 639.91
  A 0.32 0.32 75.0 0 0 741.98 639.63
  L 741.97 580.10"
/>
<path stroke="#6f6f6f" vector-effect="non-scaling-stroke" d="
  M 258.25 675.49
  C 261.77 711.97 290.72 740.27 327.44 741.88
  Q 337.62 742.33 351.54 741.79
  A 0.30 0.30 73.5 0 0 351.78 741.34
  Q 335.30 712.78 318.83 684.17
  Q 317.82 682.41 316.06 681.39
  Q 287.46 664.72 258.66 648.23
  A 0.31 0.30 16.4 0 0 258.20 648.48
  Q 257.45 667.29 258.25 675.49"
/>
<path stroke="#6f6f6f" vector-effect="non-scaling-stroke" d="
  M 682.06 682.73
  L 648.22 741.35
  A 0.30 0.30 -73.5 0 0 648.46 741.80
  Q 659.22 742.17 670.01 741.96
  C 708.97 741.18 739.50 711.83 741.92 672.69
  Q 742.38 665.23 741.80 648.47
  A 0.30 0.30 73.9 0 0 741.35 648.22
  L 682.75 682.04
  A 1.84 1.84 0.0 0 0 682.06 682.73"
/>
<path stroke="#6f6f6f" vector-effect="non-scaling-stroke" d="
  M 419.83 741.20
  L 330.41 689.57
  Q 329.76 689.20 330.13 689.85
  L 360.01 741.56
  A 0.87 0.86 -15.0 0 0 360.76 741.99
  L 419.62 742.00
  Q 421.22 742.00 419.83 741.20"
/>
<path stroke="#6f6f6f" vector-effect="non-scaling-stroke" d="
  M 669.53 690.33
  A 0.31 0.31 82.4 0 0 669.11 689.91
  L 579.88 741.42
  A 0.31 0.31 -63.2 0 0 580.04 742.00
  L 639.54 742.02
  A 0.31 0.31 14.9 0 0 639.81 741.87
  L 669.53 690.33"
/>
<path stroke="#6f6f6f" vector-effect="non-scaling-stroke" d="
  M 375.62 768.59
  C 396.09 802.87 439.02 813.27 473.46 794.72
  Q 481.12 790.59 492.40 783.69
  A 0.31 0.30 44.4 0 0 492.39 783.17
  Q 463.86 766.60 435.24 750.10
  Q 433.42 749.05 431.32 749.05
  Q 398.22 748.92 365.01 749.05
  A 0.30 0.30 74.8 0 0 364.76 749.50
  Q 370.01 759.19 375.62 768.59"
/>
<path stroke="#6f6f6f" vector-effect="non-scaling-stroke" d="
  M 448.42 749.80
  L 499.29 779.09
  A 1.41 1.39 44.7 0 0 500.70 779.09
  L 551.86 749.59
  Q 552.88 749.00 551.71 749.00
  L 448.63 749.00
  Q 447.03 749.00 448.42 749.80"
/>
<path stroke="#6f6f6f" vector-effect="non-scaling-stroke" d="
  M 507.55 783.84
  C 516.66 789.11 526.93 795.56 535.55 798.99
  C 569.31 812.40 606.76 798.36 625.12 767.34
  Q 630.33 758.54 635.26 749.49
  A 0.30 0.30 13.7 0 0 634.99 749.05
  Q 601.88 748.95 568.79 749.01
  Q 566.76 749.02 565.00 750.04
  Q 536.34 766.60 507.55 783.21
  A 0.36 0.36 45.3 0 0 507.55 783.84"
/>
<path stroke="#a0abaf" vector-effect="non-scaling-stroke" d="
  M 450.71 362.06
  L 450.79 363.74
  A 0.53 0.52 -1.1 0 0 451.32 364.24
  L 465.96 364.25
  A 1.51 1.35 -61.9 0 0 466.86 363.92
  L 479.61 353.77
  A 1.49 1.37 24.0 0 1 480.50 353.47
  L 499.70 353.57
  A 1.07 0.92 16.7 0 0 500.53 353.20
  C 501.16 352.40 501.38 351.28 502.05 350.57
  Q 507.18 345.12 512.80 348.43
  C 526.03 356.24 506.78 373.08 500.64 358.22
  A 0.74 0.73 78.6 0 0 499.96 357.76
  L 481.29 357.75
  A 1.48 1.33 -62.0 0 0 480.41 358.07
  L 467.65 368.18
  A 1.51 1.13 19.9 0 1 466.76 368.45
  L 451.40 368.34
  A 0.55 0.54 1.1 0 0 450.85 368.86
  L 450.70 371.98
  A 0.52 0.49 -88.8 0 1 450.21 372.48
  C 448.95 372.49 431.25 370.87 436.43 376.18
  A 1.33 1.11 -18.2 0 0 437.29 376.52
  L 450.29 376.58
  A 0.41 0.39 -83.4 0 1 450.66 377.08
  C 450.29 378.91 450.90 379.52 452.74 379.51
  Q 461.47 379.47 470.20 379.53
  A 1.25 1.17 65.8 0 1 471.04 379.88
  L 475.70 384.59
  A 1.27 1.09 63.8 0 0 476.56 384.96
  L 486.06 384.93
  A 0.91 0.83 -74.0 0 0 486.81 384.47
  Q 490.64 377.86 497.10 380.03
  C 507.28 383.43 502.55 398.42 492.50 395.99
  Q 487.63 394.81 486.32 389.51
  A 0.63 0.63 82.9 0 0 485.71 389.03
  L 475.05 388.99
  A 1.24 1.17 66.4 0 1 474.20 388.63
  L 469.38 383.83
  A 1.21 1.11 -20.9 0 0 468.52 383.49
  L 451.30 383.52
  A 0.53 0.49 -88.1 0 0 450.81 384.02
  L 450.63 386.86
  A 0.60 0.56 1.0 0 1 450.06 387.38
  Q 441.57 387.73 438.25 387.48
  Q 435.03 387.23 435.80 390.29
  A 1.56 1.55 -6.9 0 0 437.31 391.47
  L 450.19 391.53
  A 0.52 0.50 -0.0 0 1 450.71 392.03
  L 450.62 401.78
  A 0.53 0.50 0.5 0 1 450.09 402.27
  L 436.90 402.47
  A 1.01 0.99 16.7 0 0 436.10 402.89
  Q 434.84 404.69 436.58 406.02
  A 1.64 1.12 -17.8 0 0 437.49 406.29
  L 450.13 406.35
  A 0.52 0.51 -0.0 0 1 450.65 406.86
  L 450.71 416.72
  A 0.52 0.50 -0.0 0 1 450.19 417.22
  L 437.28 417.24
  A 1.27 1.08 19.0 0 0 436.42 417.58
  C 431.17 422.86 449.00 421.27 450.22 421.28
  A 0.49 0.49 -88.3 0 1 450.70 421.79
  Q 450.25 438.93 467.36 438.36
  A 0.52 0.51 87.7 0 1 467.88 438.85
  Q 468.14 444.80 467.98 450.75
  Q 467.87 454.79 470.83 453.33
  A 2.30 2.19 77.6 0 0 472.05 451.32
  L 472.10 438.88
  A 0.53 0.52 90.0 0 1 472.62 438.35
  L 482.14 438.35
  A 0.55 0.52 88.9 0 1 482.66 438.88
  C 482.70 440.15 481.17 458.09 486.45 452.57
  A 1.37 1.06 72.2 0 0 486.77 451.69
  L 486.85 438.88
  A 0.53 0.51 -90.0 0 1 487.36 438.35
  L 497.15 438.35
  A 0.53 0.51 89.4 0 1 497.66 438.87
  Q 497.95 448.66 497.74 450.75
  Q 497.42 453.85 500.15 453.48
  A 1.80 1.80 -3.8 0 0 501.71 451.70
  L 501.78 438.80
  A 0.52 0.51 -89.4 0 1 502.29 438.29
  L 511.89 438.35
  A 0.53 0.52 89.4 0 1 512.41 438.87
  C 512.48 441.36 511.91 451.28 513.10 452.81
  Q 514.31 454.37 516.17 452.80
  A 1.17 1.00 73.3 0 0 516.53 451.98
  L 516.60 438.89
  A 0.54 0.51 -90.0 0 1 517.11 438.35
  L 526.90 438.36
  A 0.52 0.51 -90.0 0 1 527.41 438.88
  L 527.48 451.71
  A 1.34 1.07 -71.7 0 0 527.80 452.58
  C 533.11 458.24 531.51 439.94 531.53 438.79
  A 0.48 0.48 1.1 0 1 532.03 438.31
  Q 549.34 439.05 548.82 421.79
  A 0.50 0.49 88.8 0 1 549.30 421.28
  C 550.30 421.27 568.80 422.80 563.09 417.64
  A 1.45 1.31 -21.4 0 0 562.19 417.30
  L 525.23 416.98
  A 1.18 1.11 21.5 0 0 524.38 417.32
  L 519.53 422.12
  A 1.24 1.14 -65.8 0 1 518.69 422.48
  L 500.79 422.50
  A 1.29 1.13 -19.7 0 1 499.92 422.16
  L 494.42 416.76
  A 1.36 0.69 55.2 0 0 493.60 416.32
  L 490.19 416.33
  A 0.84 0.66 -76.9 0 0 489.52 416.87
  C 487.35 422.27 481.50 424.23 476.74 420.96
  C 464.89 412.78 484.05 396.98 489.66 411.74
  A 0.74 0.71 79.2 0 0 490.33 412.22
  L 495.24 412.25
  A 1.29 1.15 64.3 0 1 496.08 412.60
  L 501.68 418.08
  A 1.32 1.08 -18.8 0 0 502.54 418.40
  L 517.26 418.40
  A 1.22 1.10 20.0 0 0 518.10 418.06
  L 522.71 413.37
  A 1.21 1.14 20.4 0 1 523.57 413.01
  L 548.35 412.95
  A 0.53 0.51 0.6 0 0 548.88 412.45
  L 549.04 406.78
  A 0.53 0.49 -88.8 0 1 549.53 406.27
  L 562.72 406.25
  A 0.93 0.88 13.8 0 0 563.49 405.81
  Q 565.48 402.45 561.43 402.31
  Q 558.84 402.21 549.55 402.23
  A 0.51 0.50 88.9 0 1 549.04 401.73
  L 548.96 398.27
  A 0.51 0.51 89.4 0 0 548.45 397.77
  L 525.30 397.75
  A 1.32 1.12 19.2 0 0 524.42 398.09
  L 519.57 402.86
  A 0.86 0.78 59.9 0 0 519.39 403.70
  Q 521.96 411.57 515.44 414.96
  C 506.57 419.56 498.76 407.21 506.74 400.93
  Q 510.42 398.02 515.76 400.05
  A 0.82 0.79 33.8 0 0 516.59 399.90
  L 522.96 394.06
  A 1.38 1.32 -65.1 0 1 523.86 393.71
  L 548.58 393.71
  A 0.61 0.54 -84.3 0 0 549.12 393.21
  L 549.38 391.82
  A 0.65 0.57 5.7 0 1 550.03 391.36
  Q 558.89 391.76 561.76 391.48
  Q 565.71 391.11 563.72 387.89
  A 0.96 0.84 -13.9 0 0 562.94 387.49
  L 549.88 387.41
  A 0.53 0.52 0.0 0 1 549.35 386.89
  L 549.29 377.03
  A 0.52 0.50 -0.0 0 1 549.81 376.53
  L 562.47 376.51
  A 1.30 1.14 20.2 0 0 563.33 376.18
  C 565.59 373.98 563.39 372.47 561.10 372.49
  Q 555.33 372.53 549.54 372.47
  A 0.51 0.50 0.6 0 1 549.04 371.97
  L 549.03 362.29
  A 0.51 0.51 -90.0 0 1 549.54 361.78
  L 561.97 361.74
  Q 564.44 361.74 564.20 359.29
  C 564.01 357.40 561.62 357.75 560.19 357.77
  Q 554.98 357.82 549.60 357.65
  A 0.51 0.50 -88.9 0 1 549.11 357.13
  Q 549.54 339.95 532.26 340.44
  A 0.49 0.47 88.9 0 1 531.77 339.95
  L 531.65 326.73
  A 1.22 1.09 -70.9 0 0 531.29 325.87
  Q 529.81 324.50 528.14 325.73
  A 1.06 0.95 73.5 0 0 527.75 326.55
  L 527.72 339.70
  A 0.51 0.51 0.0 0 1 527.21 340.21
  L 517.28 340.21
  A 0.51 0.50 90.0 0 1 516.78 339.70
  L 516.76 326.79
  A 1.26 1.03 -72.2 0 0 516.42 325.93
  Q 514.57 324.21 513.04 326.14
  A 1.57 1.25 69.5 0 0 512.74 327.06
  L 512.72 339.70
  A 0.51 0.50 -90.0 0 1 512.22 340.21
  L 502.54 340.22
  A 0.52 0.51 89.4 0 1 502.03 339.71
  Q 501.97 334.26 502.01 328.82
  C 502.03 326.70 501.24 323.64 498.41 325.94
  A 1.13 1.08 -20.1 0 0 498.00 326.77
  L 497.83 339.61
  A 0.54 0.48 -89.4 0 1 497.35 340.14
  L 487.59 340.14
  A 0.53 0.50 -90.0 0 1 487.09 339.61
  L 487.02 327.04
  A 1.42 1.12 -70.7 0 0 486.72 326.17
  Q 484.78 323.99 483.21 326.32
  A 1.83 1.34 68.9 0 0 482.96 327.24
  L 482.96 339.73
  A 0.51 0.50 -90.0 0 1 482.46 340.24
  L 472.77 340.21
  A 0.50 0.50 0.0 0 1 472.27 339.71
  L 472.09 326.73
  A 1.24 1.14 -69.7 0 0 471.74 325.87
  Q 470.29 324.48 468.65 325.73
  A 1.07 1.06 71.9 0 0 468.24 326.55
  L 467.99 339.73
  A 0.49 0.48 -88.8 0 1 467.50 340.21
  Q 450.35 339.83 450.92 356.97
  A 0.49 0.49 89.4 0 1 450.43 357.47
  L 437.28 357.50
  A 1.32 1.13 19.6 0 0 436.41 357.83
  Q 434.49 359.70 436.63 361.24
  A 1.75 1.32 -20.8 0 0 437.56 361.51
  L 450.19 361.55
  A 0.53 0.52 88.9 0 1 450.71 362.06"
/>
<path stroke="#a0abaf" vector-effect="non-scaling-stroke" d="
  M 513.09 355.65
  A 4.34 4.34 0.0 0 0 508.75 351.31
  A 4.34 4.34 0.0 0 0 504.41 355.65
  A 4.34 4.34 0.0 0 0 508.75 359.99
  A 4.34 4.34 0.0 0 0 513.09 355.65"
/>
<path stroke="#a0abaf" vector-effect="non-scaling-stroke" d="
  M 498.80 387.82
  A 4.33 4.33 0.0 0 0 494.47 383.49
  A 4.33 4.33 0.0 0 0 490.14 387.82
  A 4.33 4.33 0.0 0 0 494.47 392.15
  A 4.33 4.33 0.0 0 0 498.80 387.82"
/>
<path stroke="#a0abaf" vector-effect="non-scaling-stroke" d="
  M 516.10 407.52
  A 4.34 4.34 0.0 0 0 511.76 403.18
  A 4.34 4.34 0.0 0 0 507.42 407.52
  A 4.34 4.34 0.0 0 0 511.76 411.86
  A 4.34 4.34 0.0 0 0 516.10 407.52"
/>
<path stroke="#a0abaf" vector-effect="non-scaling-stroke" d="
  M 485.93 413.98
  A 4.34 4.34 0.0 0 0 481.59 409.64
  A 4.34 4.34 0.0 0 0 477.25 413.98
  A 4.34 4.34 0.0 0 0 481.59 418.32
  A 4.34 4.34 0.0 0 0 485.93 413.98"
/>
<path stroke="#a0abaf" vector-effect="non-scaling-stroke" d="
  M 436.69 658.69
  L 396.31 658.76
  A 0.51 0.49 -0.6 0 0 395.80 659.26
  L 395.87 674.36
  A 0.53 0.51 0.6 0 0 396.39 674.87
  Q 413.87 675.30 431.33 674.77
  C 444.38 674.38 452.72 669.12 455.80 655.86
  Q 456.74 651.78 456.74 649.43
  Q 456.74 581.07 456.77 512.67
  A 0.52 0.51 89.4 0 1 457.27 512.15
  L 471.71 511.98
  A 0.52 0.50 -0.6 0 0 472.22 511.48
  L 472.20 496.24
  A 0.51 0.50 0.6 0 0 471.70 495.74
  L 422.96 495.67
  A 0.92 0.90 0.3 0 0 422.03 496.57
  L 422.11 511.63
  A 0.53 0.52 89.4 0 0 422.63 512.15
  L 436.70 512.20
  A 0.51 0.48 -0.0 0 1 437.21 512.68
  L 437.19 658.19
  A 0.50 0.50 0.0 0 1 436.69 658.69"
/>
<path stroke="#a0abaf" vector-effect="non-scaling-stroke" d="
  M 538.06 658.19
  L 538.03 512.56
  A 0.51 0.50 -90.0 0 1 538.53 512.05
  L 552.87 512.07
  A 0.52 0.49 -0.0 0 0 553.39 511.58
  L 553.38 496.34
  A 0.50 0.48 -1.1 0 0 552.86 495.86
  C 536.50 496.31 520.18 495.40 503.80 495.96
  A 0.53 0.52 -1.1 0 0 503.29 496.48
  L 503.34 511.59
  A 0.53 0.50 88.9 0 0 503.85 512.11
  L 516.89 511.89
  A 1.58 1.52 -0.6 0 1 518.50 513.41
  L 518.50 657.84
  A 0.97 0.94 -0.3 0 1 517.54 658.78
  L 503.88 658.87
  A 0.52 0.50 -0.5 0 0 503.36 659.38
  L 503.40 674.46
  A 0.51 0.50 0.0 0 0 503.91 674.96
  L 603.70 674.97
  A 0.51 0.49 0.0 0 0 604.21 674.48
  L 604.21 631.30
  A 0.50 0.49 89.4 0 0 603.71 630.80
  L 588.57 630.87
  A 0.50 0.50 0.0 0 0 588.07 631.37
  L 587.98 658.20
  A 0.51 0.50 -90.0 0 1 587.48 658.71
  L 538.57 658.69
  A 0.51 0.50 0.0 0 1 538.06 658.19"
/>
<path stroke="#a0abaf" vector-effect="non-scaling-stroke" d="
  M 521.69 351.90
  C 527.49 352.83 536.69 349.94 536.90 359.31
  Q 537.08 367.56 536.97 375.84
  C 536.95 377.73 537.48 380.22 540.03 378.74
  A 1.74 1.74 75.7 0 0 540.91 377.26
  C 541.08 371.17 542.25 358.03 539.16 353.08
  C 535.60 347.40 529.28 348.07 521.93 348.31
  A 1.44 1.13 17.8 0 0 521.04 348.64
  Q 519.51 350.04 520.83 351.47
  A 1.61 1.19 -9.8 0 0 521.69 351.90"
/>
<path stroke="#a0abaf" vector-effect="non-scaling-stroke" d="
  M 458.93 420.24
  C 459.12 425.83 463.52 430.13 469.07 430.36
  C 470.13 430.41 483.85 431.83 478.58 426.82
  A 1.30 1.14 -20.2 0 0 477.72 426.49
  C 471.58 426.47 463.27 428.38 463.03 419.17
  Q 462.72 407.25 462.76 395.31
  A 1.24 1.09 -70.9 0 0 462.41 394.45
  Q 460.80 392.95 459.40 394.42
  A 1.46 1.14 73.9 0 0 459.05 395.29
  Q 458.50 407.80 458.93 420.24"
/>
</g>
<path fill="#dedede" d="
  M 0.00 0.00
  L 1000.00 0.00
  L 1000.00 1000.00
  L 0.00 1000.00
  L 0.00 0.00
  Z
  M 749.75 643.32
  Q 768.84 632.50 772.92 629.92
  C 808.35 607.43 821.65 562.23 801.73 524.79
  Q 799.16 519.97 787.75 500.43
  A 0.86 0.86 -0.0 0 1 787.75 499.57
  C 793.59 489.49 800.86 478.02 804.77 468.60
  C 819.72 432.67 806.68 391.73 773.69 370.55
  Q 770.03 368.20 749.42 356.46
  A 0.83 0.82 -75.1 0 1 749.00 355.72
  Q 749.27 329.51 748.77 324.26
  C 745.25 287.66 718.64 258.12 682.41 252.12
  C 671.33 250.28 656.83 250.96 644.25 251.01
  A 0.85 0.84 -14.3 0 1 643.51 250.58
  Q 631.34 229.00 628.27 224.49
  C 604.09 188.98 558.93 179.04 521.61 200.16
  Q 511.02 206.15 500.47 212.22
  A 0.93 0.90 44.8 0 1 499.54 212.21
  Q 488.62 205.86 477.60 199.71
  C 444.12 181.06 403.33 187.43 378.06 216.29
  C 370.19 225.28 363.11 238.85 356.63 250.36
  A 1.23 1.21 -75.2 0 1 355.57 250.99
  Q 343.60 251.02 331.24 251.04
  C 291.39 251.10 258.76 278.89 252.07 318.17
  C 250.20 329.19 251.05 343.36 250.99 355.73
  A 0.88 0.87 75.3 0 1 250.55 356.49
  C 239.57 362.80 226.53 369.58 217.80 376.78
  C 191.71 398.32 181.98 435.07 194.41 466.70
  C 198.37 476.78 206.03 488.92 212.23 499.50
  A 0.92 0.92 45.0 0 1 212.23 500.44
  Q 205.71 511.61 199.44 522.87
  C 179.08 559.41 189.80 605.60 224.80 628.45
  Q 229.28 631.38 250.55 643.50
  A 0.88 0.87 -75.3 0 1 250.99 644.26
  C 251.03 656.26 250.32 670.16 251.88 680.70
  C 257.56 719.02 289.24 747.46 328.31 748.92
  Q 332.91 749.10 355.74 749.00
  A 0.84 0.84 75.7 0 1 356.48 749.44
  Q 367.93 769.53 371.05 774.45
  C 392.90 808.92 436.96 819.98 473.44 802.66
  Q 477.97 800.51 499.58 787.75
  A 0.86 0.86 0.0 0 1 500.44 787.75
  Q 521.69 800.21 525.75 802.25
  C 559.30 819.06 599.54 810.75 623.22 782.18
  C 630.48 773.41 637.21 760.44 643.51 749.45
  A 0.88 0.87 14.7 0 1 644.27 749.01
  Q 656.88 748.99 669.50 748.88
  C 708.99 748.53 741.52 720.66 747.94 681.85
  C 749.74 670.97 748.83 656.59 749.29 644.07
  A 0.90 0.88 77.1 0 1 749.75 643.32
  Z"
/>
<path fill="#000000" d="
  M 749.29 644.07
  C 748.83 656.59 749.74 670.97 747.94 681.85
  C 741.52 720.66 708.99 748.53 669.50 748.88
  Q 656.88 748.99 644.27 749.01
  A 0.88 0.87 14.7 0 0 643.51 749.45
  C 637.21 760.44 630.48 773.41 623.22 782.18
  C 599.54 810.75 559.30 819.06 525.75 802.25
  Q 521.69 800.21 500.44 787.75
  A 0.86 0.86 0.0 0 0 499.58 787.75
  Q 477.97 800.51 473.44 802.66
  C 436.96 819.98 392.90 808.92 371.05 774.45
  Q 367.93 769.53 356.48 749.44
  A 0.84 0.84 75.7 0 0 355.74 749.00
  Q 332.91 749.10 328.31 748.92
  C 289.24 747.46 257.56 719.02 251.88 680.70
  C 250.32 670.16 251.03 656.26 250.99 644.26
  A 0.88 0.87 -75.3 0 0 250.55 643.50
  Q 229.28 631.38 224.80 628.45
  C 189.80 605.60 179.08 559.41 199.44 522.87
  Q 205.71 511.61 212.23 500.44
  A 0.92 0.92 45.1 0 0 212.23 499.50
  C 206.03 488.92 198.37 476.78 194.41 466.70
  C 181.98 435.07 191.71 398.32 217.80 376.78
  C 226.53 369.58 239.57 362.80 250.55 356.49
  A 0.88 0.87 75.3 0 0 250.99 355.73
  C 251.05 343.36 250.20 329.19 252.07 318.17
  C 258.76 278.89 291.39 251.10 331.24 251.04
  Q 343.60 251.02 355.57 250.99
  A 1.23 1.21 -75.2 0 0 356.63 250.36
  C 363.11 238.85 370.19 225.28 378.06 216.29
  C 403.33 187.43 444.12 181.06 477.60 199.71
  Q 488.62 205.86 499.54 212.21
  A 0.93 0.90 44.8 0 0 500.47 212.22
  Q 511.02 206.15 521.61 200.16
  C 558.93 179.04 604.09 188.98 628.27 224.49
  Q 631.34 229.00 643.51 250.58
  A 0.85 0.84 -14.3 0 0 644.25 251.01
  C 656.83 250.96 671.33 250.28 682.41 252.12
  C 718.64 258.12 745.25 287.66 748.77 324.26
  Q 749.27 329.51 749.00 355.72
  A 0.83 0.82 -75.1 0 0 749.42 356.46
  Q 770.03 368.20 773.69 370.55
  C 806.68 391.73 819.72 432.67 804.77 468.60
  C 800.86 478.02 793.59 489.49 787.75 499.57
  A 0.86 0.86 0.0 0 0 787.75 500.43
  Q 799.16 519.97 801.73 524.79
  C 821.65 562.23 808.35 607.43 772.92 629.92
  Q 768.84 632.50 749.75 643.32
  A 0.90 0.88 77.1 0 0 749.29 644.07
  Z
  M 407.88 202.70
  C 385.72 212.47 375.89 229.86 364.74 250.50
  A 0.31 0.30 14.3 0 0 365.01 250.94
  Q 398.18 251.08 431.35 250.95
  Q 433.43 250.95 435.25 249.90
  Q 463.80 233.38 492.37 216.82
  A 0.31 0.30 -44.4 0 0 492.38 216.30
  Q 474.86 205.41 468.20 202.53
  Q 437.98 189.43 407.88 202.70
  Z
  M 623.37 229.91
  C 603.04 196.89 560.40 187.02 527.11 205.22
  Q 517.15 210.66 507.31 216.30
  Q 506.97 216.49 507.31 216.69
  Q 536.16 233.33 565.00 249.98
  Q 566.76 250.99 568.78 250.99
  Q 601.83 251.04 634.98 250.95
  A 0.30 0.30 -14.0 0 0 635.25 250.51
  Q 629.59 239.99 623.37 229.91
  Z
  M 551.70 250.26
  L 500.39 220.77
  A 0.87 0.86 -45.3 0 0 499.53 220.78
  L 447.82 250.63
  Q 447.18 251.00 447.92 251.00
  L 551.50 251.00
  Q 552.97 251.00 551.70 250.26
  Z
  M 359.84 258.63
  Q 345.09 284.03 330.52 309.56
  Q 329.86 310.71 331.02 310.05
  L 420.44 258.40
  Q 421.15 257.99 420.33 257.99
  L 360.71 258.00
  A 0.86 0.79 17.3 0 0 360.05 258.31
  Q 359.93 258.48 359.84 258.63
  Z
  M 323.03 677.33
  L 434.57 741.73
  Q 435.01 741.98 435.52 741.98
  Q 499.26 742.04 562.96 741.98
  Q 564.99 741.97 566.75 740.96
  Q 621.74 709.19 676.75 677.44
  A 1.98 1.88 -1.6 0 0 677.44 676.75
  Q 709.20 621.74 740.96 566.71
  Q 741.98 564.95 741.98 562.92
  Q 742.03 499.97 741.98 437.04
  Q 741.98 435.01 740.96 433.25
  Q 709.17 378.27 677.44 323.24
  A 1.83 1.74 88.5 0 0 676.76 322.56
  Q 621.75 290.80 566.74 259.03
  Q 564.99 258.02 562.96 258.02
  Q 499.22 257.98 435.51 258.01
  Q 435.01 258.01 434.57 258.26
  L 323.25 322.56
  Q 322.81 322.82 322.56 323.25
  Q 290.80 378.26 259.04 433.29
  Q 258.02 435.05 258.02 437.08
  Q 257.97 500.03 258.02 562.96
  Q 258.02 564.99 259.04 566.74
  Q 290.94 621.95 322.73 677.02
  A 0.83 0.77 88.8 0 0 323.03 677.33
  Z
  M 324.50 258.25
  C 288.37 261.73 259.89 290.47 258.12 326.84
  Q 257.64 336.64 258.21 351.53
  A 0.31 0.31 74.2 0 0 258.67 351.79
  Q 287.22 335.31 315.84 318.84
  Q 317.60 317.82 318.62 316.07
  Q 335.26 287.45 351.76 258.65
  A 0.31 0.30 -73.9 0 0 351.51 258.19
  Q 332.70 257.46 324.50 258.25
  Z
  M 579.92 258.55
  L 669.64 310.39
  Q 670.15 310.68 669.86 310.18
  L 639.98 258.45
  A 0.87 0.86 75.0 0 0 639.23 258.01
  L 580.07 258.00
  Q 578.97 258.00 579.92 258.55
  Z
  M 682.64 317.98
  C 702.43 328.63 721.83 340.53 741.36 351.76
  A 0.31 0.30 -74.2 0 0 741.81 351.50
  Q 742.10 342.82 741.98 330.75
  C 741.58 291.45 711.81 260.17 672.44 258.01
  Q 668.11 257.78 648.46 258.11
  A 0.30 0.29 -14.7 0 0 648.20 258.55
  L 682.23 317.58
  A 1.00 0.94 0.8 0 0 682.64 317.98
  Z
  M 258.73 419.96
  L 310.30 330.55
  Q 310.70 329.86 310.01 330.26
  L 258.45 360.03
  A 0.87 0.86 75.0 0 0 258.02 360.78
  L 258.01 419.76
  Q 258.01 421.20 258.73 419.96
  Z
  M 690.25 330.35
  A 0.31 0.31 85.2 0 0 689.83 330.77
  L 741.43 420.16
  A 0.31 0.31 30.9 0 0 742.01 420.00
  L 742.00 360.42
  A 0.31 0.31 15.0 0 0 741.85 360.15
  L 690.25 330.35
  Z
  M 229.79 376.81
  C 198.47 395.80 188.34 435.41 202.47 468.02
  Q 205.25 474.46 216.31 492.37
  A 0.31 0.30 -45.6 0 0 216.83 492.36
  Q 233.46 463.74 249.97 435.02
  Q 251.01 433.21 251.01 431.13
  Q 250.99 398.06 251.00 364.98
  A 0.37 0.36 75.3 0 0 250.46 364.66
  Q 240.15 370.54 229.79 376.81
  Z
  M 780.87 384.88
  C 772.06 376.61 760.23 370.55 749.83 364.75
  A 0.56 0.55 -75.5 0 0 749.01 365.24
  Q 748.99 398.23 749.01 431.21
  Q 749.01 433.25 750.02 435.01
  Q 766.54 463.70 783.20 492.36
  A 0.30 0.29 45.9 0 0 783.71 492.37
  Q 789.42 483.02 794.69 473.45
  C 810.89 444.04 805.40 407.88 780.87 384.88
  Z
  M 250.42 551.78
  A 0.31 0.31 33.5 0 0 251.00 551.63
  L 251.00 448.41
  A 0.31 0.31 -29.8 0 0 250.42 448.26
  L 220.59 499.86
  A 0.31 0.31 0.0 0 0 220.59 500.18
  L 250.42 551.78
  Z
  M 749.63 448.34
  A 0.34 0.34 -59.9 0 0 749.00 448.51
  L 749.00 551.45
  A 0.34 0.34 60.0 0 0 749.63 551.62
  L 779.41 500.15
  A 0.34 0.34 -45.0 0 0 779.41 499.81
  L 749.63 448.34
  Z
  M 202.56 531.80
  C 188.15 564.34 198.57 603.99 229.46 623.04
  Q 239.79 629.40 250.51 635.24
  A 0.30 0.30 -76.0 0 0 250.95 634.97
  Q 251.04 601.90 250.99 568.83
  Q 250.99 566.75 249.95 564.95
  Q 233.42 536.29 216.83 507.63
  A 0.31 0.30 46.8 0 0 216.31 507.61
  Q 205.81 524.44 202.56 531.80
  Z
  M 783.17 507.54
  Q 766.57 536.35 750.10 564.77
  Q 749.05 566.57 749.05 568.66
  Q 748.95 601.83 749.02 635.02
  Q 749.02 635.72 749.63 635.37
  C 757.88 630.56 767.76 625.36 774.45 620.39
  C 804.04 598.38 812.62 558.41 794.38 526.08
  Q 789.12 516.76 783.85 507.54
  Q 783.51 506.95 783.17 507.54
  Z
  M 309.73 669.60
  A 0.31 0.31 1.2 0 0 310.15 669.18
  L 258.58 579.86
  A 0.31 0.31 -60.1 0 0 258.00 580.01
  L 258.01 639.56
  A 0.31 0.31 -75.0 0 0 258.16 639.83
  L 309.73 669.60
  Z
  M 741.97 580.10
  A 0.32 0.32 -30.9 0 0 741.37 579.94
  L 689.82 669.23
  A 0.32 0.32 89.0 0 0 690.26 669.66
  L 741.82 639.91
  A 0.32 0.32 75.0 0 0 741.98 639.63
  L 741.97 580.10
  Z
  M 258.25 675.49
  C 261.77 711.97 290.72 740.27 327.44 741.88
  Q 337.62 742.33 351.54 741.79
  A 0.30 0.30 73.5 0 0 351.78 741.34
  Q 335.30 712.78 318.83 684.17
  Q 317.82 682.41 316.06 681.39
  Q 287.46 664.72 258.66 648.23
  A 0.31 0.30 16.4 0 0 258.20 648.48
  Q 257.45 667.29 258.25 675.49
  Z
  M 682.06 682.73
  L 648.22 741.35
  A 0.30 0.30 -73.5 0 0 648.46 741.80
  Q 659.22 742.17 670.01 741.96
  C 708.97 741.18 739.50 711.83 741.92 672.69
  Q 742.38 665.23 741.80 648.47
  A 0.30 0.30 73.9 0 0 741.35 648.22
  L 682.75 682.04
  A 1.84 1.84 0.0 0 0 682.06 682.73
  Z
  M 419.83 741.20
  L 330.41 689.57
  Q 329.76 689.20 330.13 689.85
  L 360.01 741.56
  A 0.87 0.86 -15.0 0 0 360.76 741.99
  L 419.62 742.00
  Q 421.22 742.00 419.83 741.20
  Z
  M 669.53 690.33
  A 0.31 0.31 82.4 0 0 669.11 689.91
  L 579.88 741.42
  A 0.31 0.31 -63.2 0 0 580.04 742.00
  L 639.54 742.02
  A 0.31 0.31 14.9 0 0 639.81 741.87
  L 669.53 690.33
  Z
  M 375.62 768.59
  C 396.09 802.87 439.02 813.27 473.46 794.72
  Q 481.12 790.59 492.40 783.69
  A 0.31 0.30 44.4 0 0 492.39 783.17
  Q 463.86 766.60 435.24 750.10
  Q 433.42 749.05 431.32 749.05
  Q 398.22 748.92 365.01 749.05
  A 0.30 0.30 74.8 0 0 364.76 749.50
  Q 370.01 759.19 375.62 768.59
  Z
  M 448.42 749.80
  L 499.29 779.09
  A 1.41 1.39 44.7 0 0 500.70 779.09
  L 551.86 749.59
  Q 552.88 749.00 551.71 749.00
  L 448.63 749.00
  Q 447.03 749.00 448.42 749.80
  Z
  M 507.55 783.84
  C 516.66 789.11 526.93 795.56 535.55 798.99
  C 569.31 812.40 606.76 798.36 625.12 767.34
  Q 630.33 758.54 635.26 749.49
  A 0.30 0.30 13.7 0 0 634.99 749.05
  Q 601.88 748.95 568.79 749.01
  Q 566.76 749.02 565.00 750.04
  Q 536.34 766.60 507.55 783.21
  A 0.36 0.36 45.3 0 0 507.55 783.84
  Z"
/>
<path fill="#dedede" d="
  M 364.74 250.50
  C 375.89 229.86 385.72 212.47 407.88 202.70
  Q 437.98 189.43 468.20 202.53
  Q 474.86 205.41 492.38 216.30
  A 0.31 0.30 -44.4 0 1 492.37 216.82
  Q 463.80 233.38 435.25 249.90
  Q 433.43 250.95 431.35 250.95
  Q 398.18 251.08 365.01 250.94
  A 0.31 0.30 14.3 0 1 364.74 250.50
  Z"
/>
<path fill="#dedede" d="
  M 527.11 205.22
  C 560.40 187.02 603.04 196.89 623.37 229.91
  Q 629.59 239.99 635.25 250.51
  A 0.30 0.30 -14.0 0 1 634.98 250.95
  Q 601.83 251.04 568.78 250.99
  Q 566.76 250.99 565.00 249.98
  Q 536.16 233.33 507.31 216.69
  Q 506.97 216.49 507.31 216.30
  Q 517.15 210.66 527.11 205.22
  Z"
/>
<path fill="#dedede" d="
  M 551.70 250.26
  Q 552.97 251.00 551.50 251.00
  L 447.92 251.00
  Q 447.18 251.00 447.82 250.63
  L 499.53 220.78
  A 0.87 0.86 -45.3 0 1 500.39 220.77
  L 551.70 250.26
  Z"
/>
<path fill="#dedede" d="
  M 359.84 258.63
  Q 359.93 258.48 360.05 258.31
  A 0.86 0.79 17.3 0 1 360.71 258.00
  L 420.33 257.99
  Q 421.15 257.99 420.44 258.40
  L 331.02 310.05
  Q 329.86 310.71 330.52 309.56
  Q 345.09 284.03 359.84 258.63
  Z"
/>
<path fill="#dedede" d="
  M 323.03 677.33
  A 0.83 0.77 88.8 0 1 322.73 677.02
  Q 290.94 621.95 259.04 566.74
  Q 258.02 564.99 258.02 562.96
  Q 257.97 500.03 258.02 437.08
  Q 258.02 435.05 259.04 433.29
  Q 290.80 378.26 322.56 323.25
  Q 322.81 322.82 323.25 322.56
  L 434.57 258.26
  Q 435.01 258.01 435.51 258.01
  Q 499.22 257.98 562.96 258.02
  Q 564.99 258.02 566.74 259.03
  Q 621.75 290.80 676.76 322.56
  A 1.83 1.74 88.5 0 1 677.44 323.24
  Q 709.17 378.27 740.96 433.25
  Q 741.98 435.01 741.98 437.04
  Q 742.03 499.97 741.98 562.92
  Q 741.98 564.95 740.96 566.71
  Q 709.20 621.74 677.44 676.75
  A 1.98 1.88 -1.6 0 1 676.75 677.44
  Q 621.74 709.19 566.75 740.96
  Q 564.99 741.97 562.96 741.98
  Q 499.26 742.04 435.52 741.98
  Q 435.01 741.98 434.57 741.73
  L 323.03 677.33
  Z
  M 450.71 362.06
  L 450.79 363.74
  A 0.53 0.52 -1.1 0 0 451.32 364.24
  L 465.96 364.25
  A 1.51 1.35 -61.9 0 0 466.86 363.92
  L 479.61 353.77
  A 1.49 1.37 24.0 0 1 480.50 353.47
  L 499.70 353.57
  A 1.07 0.92 16.7 0 0 500.53 353.20
  C 501.16 352.40 501.38 351.28 502.05 350.57
  Q 507.18 345.12 512.80 348.43
  C 526.03 356.24 506.78 373.08 500.64 358.22
  A 0.74 0.73 78.6 0 0 499.96 357.76
  L 481.29 357.75
  A 1.48 1.33 -62.0 0 0 480.41 358.07
  L 467.65 368.18
  A 1.51 1.13 19.9 0 1 466.76 368.45
  L 451.40 368.34
  A 0.55 0.54 1.1 0 0 450.85 368.86
  L 450.70 371.98
  A 0.52 0.49 -88.8 0 1 450.21 372.48
  C 448.95 372.49 431.25 370.87 436.43 376.18
  A 1.33 1.11 -18.2 0 0 437.29 376.52
  L 450.29 376.58
  A 0.41 0.39 -83.4 0 1 450.66 377.08
  C 450.29 378.91 450.90 379.52 452.74 379.51
  Q 461.47 379.47 470.20 379.53
  A 1.25 1.17 65.8 0 1 471.04 379.88
  L 475.70 384.59
  A 1.27 1.09 63.8 0 0 476.56 384.96
  L 486.06 384.93
  A 0.91 0.83 -74.0 0 0 486.81 384.47
  Q 490.64 377.86 497.10 380.03
  C 507.28 383.43 502.55 398.42 492.50 395.99
  Q 487.63 394.81 486.32 389.51
  A 0.63 0.63 82.9 0 0 485.71 389.03
  L 475.05 388.99
  A 1.24 1.17 66.4 0 1 474.20 388.63
  L 469.38 383.83
  A 1.21 1.11 -20.9 0 0 468.52 383.49
  L 451.30 383.52
  A 0.53 0.49 -88.1 0 0 450.81 384.02
  L 450.63 386.86
  A 0.60 0.56 1.0 0 1 450.06 387.38
  Q 441.57 387.73 438.25 387.48
  Q 435.03 387.23 435.80 390.29
  A 1.56 1.55 -6.9 0 0 437.31 391.47
  L 450.19 391.53
  A 0.52 0.50 -0.0 0 1 450.71 392.03
  L 450.62 401.78
  A 0.53 0.50 0.5 0 1 450.09 402.27
  L 436.90 402.47
  A 1.01 0.99 16.7 0 0 436.10 402.89
  Q 434.84 404.69 436.58 406.02
  A 1.64 1.12 -17.8 0 0 437.49 406.29
  L 450.13 406.35
  A 0.52 0.51 -0.0 0 1 450.65 406.86
  L 450.71 416.72
  A 0.52 0.50 -0.0 0 1 450.19 417.22
  L 437.28 417.24
  A 1.27 1.08 19.0 0 0 436.42 417.58
  C 431.17 422.86 449.00 421.27 450.22 421.28
  A 0.49 0.49 -88.3 0 1 450.70 421.79
  Q 450.25 438.93 467.36 438.36
  A 0.52 0.51 87.7 0 1 467.88 438.85
  Q 468.14 444.80 467.98 450.75
  Q 467.87 454.79 470.83 453.33
  A 2.30 2.19 77.6 0 0 472.05 451.32
  L 472.10 438.88
  A 0.53 0.52 90.0 0 1 472.62 438.35
  L 482.14 438.35
  A 0.55 0.52 88.9 0 1 482.66 438.88
  C 482.70 440.15 481.17 458.09 486.45 452.57
  A 1.37 1.06 72.2 0 0 486.77 451.69
  L 486.85 438.88
  A 0.53 0.51 -90.0 0 1 487.36 438.35
  L 497.15 438.35
  A 0.53 0.51 89.4 0 1 497.66 438.87
  Q 497.95 448.66 497.74 450.75
  Q 497.42 453.85 500.15 453.48
  A 1.80 1.80 -3.8 0 0 501.71 451.70
  L 501.78 438.80
  A 0.52 0.51 -89.4 0 1 502.29 438.29
  L 511.89 438.35
  A 0.53 0.52 89.4 0 1 512.41 438.87
  C 512.48 441.36 511.91 451.28 513.10 452.81
  Q 514.31 454.37 516.17 452.80
  A 1.17 1.00 73.3 0 0 516.53 451.98
  L 516.60 438.89
  A 0.54 0.51 -90.0 0 1 517.11 438.35
  L 526.90 438.36
  A 0.52 0.51 -90.0 0 1 527.41 438.88
  L 527.48 451.71
  A 1.34 1.07 -71.7 0 0 527.80 452.58
  C 533.11 458.24 531.51 439.94 531.53 438.79
  A 0.48 0.48 1.1 0 1 532.03 438.31
  Q 549.34 439.05 548.82 421.79
  A 0.50 0.49 88.8 0 1 549.30 421.28
  C 550.30 421.27 568.80 422.80 563.09 417.64
  A 1.45 1.31 -21.4 0 0 562.19 417.30
  L 525.23 416.98
  A 1.18 1.11 21.5 0 0 524.38 417.32
  L 519.53 422.12
  A 1.24 1.14 -65.8 0 1 518.69 422.48
  L 500.79 422.50
  A 1.29 1.13 -19.7 0 1 499.92 422.16
  L 494.42 416.76
  A 1.36 0.69 55.2 0 0 493.60 416.32
  L 490.19 416.33
  A 0.84 0.66 -76.9 0 0 489.52 416.87
  C 487.35 422.27 481.50 424.23 476.74 420.96
  C 464.89 412.78 484.05 396.98 489.66 411.74
  A 0.74 0.71 79.2 0 0 490.33 412.22
  L 495.24 412.25
  A 1.29 1.15 64.3 0 1 496.08 412.60
  L 501.68 418.08
  A 1.32 1.08 -18.8 0 0 502.54 418.40
  L 517.26 418.40
  A 1.22 1.10 20.0 0 0 518.10 418.06
  L 522.71 413.37
  A 1.21 1.14 20.4 0 1 523.57 413.01
  L 548.35 412.95
  A 0.53 0.51 0.6 0 0 548.88 412.45
  L 549.04 406.78
  A 0.53 0.49 -88.8 0 1 549.53 406.27
  L 562.72 406.25
  A 0.93 0.88 13.8 0 0 563.49 405.81
  Q 565.48 402.45 561.43 402.31
  Q 558.84 402.21 549.55 402.23
  A 0.51 0.50 88.9 0 1 549.04 401.73
  L 548.96 398.27
  A 0.51 0.51 89.4 0 0 548.45 397.77
  L 525.30 397.75
  A 1.32 1.12 19.2 0 0 524.42 398.09
  L 519.57 402.86
  A 0.86 0.78 59.9 0 0 519.39 403.70
  Q 521.96 411.57 515.44 414.96
  C 506.57 419.56 498.76 407.21 506.74 400.93
  Q 510.42 398.02 515.76 400.05
  A 0.82 0.79 33.8 0 0 516.59 399.90
  L 522.96 394.06
  A 1.38 1.32 -65.1 0 1 523.86 393.71
  L 548.58 393.71
  A 0.61 0.54 -84.3 0 0 549.12 393.21
  L 549.38 391.82
  A 0.65 0.57 5.7 0 1 550.03 391.36
  Q 558.89 391.76 561.76 391.48
  Q 565.71 391.11 563.72 387.89
  A 0.96 0.84 -13.9 0 0 562.94 387.49
  L 549.88 387.41
  A 0.53 0.52 0.0 0 1 549.35 386.89
  L 549.29 377.03
  A 0.52 0.50 -0.0 0 1 549.81 376.53
  L 562.47 376.51
  A 1.30 1.14 20.2 0 0 563.33 376.18
  C 565.59 373.98 563.39 372.47 561.10 372.49
  Q 555.33 372.53 549.54 372.47
  A 0.51 0.50 0.6 0 1 549.04 371.97
  L 549.03 362.29
  A 0.51 0.51 -90.0 0 1 549.54 361.78
  L 561.97 361.74
  Q 564.44 361.74 564.20 359.29
  C 564.01 357.40 561.62 357.75 560.19 357.77
  Q 554.98 357.82 549.60 357.65
  A 0.51 0.50 -88.9 0 1 549.11 357.13
  Q 549.54 339.95 532.26 340.44
  A 0.49 0.47 88.9 0 1 531.77 339.95
  L 531.65 326.73
  A 1.22 1.09 -70.9 0 0 531.29 325.87
  Q 529.81 324.50 528.14 325.73
  A 1.06 0.95 73.5 0 0 527.75 326.55
  L 527.72 339.70
  A 0.51 0.51 0.0 0 1 527.21 340.21
  L 517.28 340.21
  A 0.51 0.50 90.0 0 1 516.78 339.70
  L 516.76 326.79
  A 1.26 1.03 -72.2 0 0 516.42 325.93
  Q 514.57 324.21 513.04 326.14
  A 1.57 1.25 69.5 0 0 512.74 327.06
  L 512.72 339.70
  A 0.51 0.50 -90.0 0 1 512.22 340.21
  L 502.54 340.22
  A 0.52 0.51 89.4 0 1 502.03 339.71
  Q 501.97 334.26 502.01 328.82
  C 502.03 326.70 501.24 323.64 498.41 325.94
  A 1.13 1.08 -20.1 0 0 498.00 326.77
  L 497.83 339.61
  A 0.54 0.48 -89.4 0 1 497.35 340.14
  L 487.59 340.14
  A 0.53 0.50 -90.0 0 1 487.09 339.61
  L 487.02 327.04
  A 1.42 1.12 -70.7 0 0 486.72 326.17
  Q 484.78 323.99 483.21 326.32
  A 1.83 1.34 68.9 0 0 482.96 327.24
  L 482.96 339.73
  A 0.51 0.50 -90.0 0 1 482.46 340.24
  L 472.77 340.21
  A 0.50 0.50 0.0 0 1 472.27 339.71
  L 472.09 326.73
  A 1.24 1.14 -69.7 0 0 471.74 325.87
  Q 470.29 324.48 468.65 325.73
  A 1.07 1.06 71.9 0 0 468.24 326.55
  L 467.99 339.73
  A 0.49 0.48 -88.8 0 1 467.50 340.21
  Q 450.35 339.83 450.92 356.97
  A 0.49 0.49 89.4 0 1 450.43 357.47
  L 437.28 357.50
  A 1.32 1.13 19.6 0 0 436.41 357.83
  Q 434.49 359.70 436.63 361.24
  A 1.75 1.32 -20.8 0 0 437.56 361.51
  L 450.19 361.55
  A 0.53 0.52 88.9 0 1 450.71 362.06
  Z
  M 513.09 355.65
  A 4.34 4.34 0.0 0 0 508.75 351.31
  A 4.34 4.34 0.0 0 0 504.41 355.65
  A 4.34 4.34 0.0 0 0 508.75 359.99
  A 4.34 4.34 0.0 0 0 513.09 355.65
  Z
  M 498.80 387.82
  A 4.33 4.33 0.0 0 0 494.47 383.49
  A 4.33 4.33 0.0 0 0 490.14 387.82
  A 4.33 4.33 0.0 0 0 494.47 392.15
  A 4.33 4.33 0.0 0 0 498.80 387.82
  Z
  M 516.10 407.52
  A 4.34 4.34 0.0 0 0 511.76 403.18
  A 4.34 4.34 0.0 0 0 507.42 407.52
  A 4.34 4.34 0.0 0 0 511.76 411.86
  A 4.34 4.34 0.0 0 0 516.10 407.52
  Z
  M 485.93 413.98
  A 4.34 4.34 0.0 0 0 481.59 409.64
  A 4.34 4.34 0.0 0 0 477.25 413.98
  A 4.34 4.34 0.0 0 0 481.59 418.32
  A 4.34 4.34 0.0 0 0 485.93 413.98
  Z
  M 436.69 658.69
  L 396.31 658.76
  A 0.51 0.49 -0.6 0 0 395.80 659.26
  L 395.87 674.36
  A 0.53 0.51 0.6 0 0 396.39 674.87
  Q 413.87 675.30 431.33 674.77
  C 444.38 674.38 452.72 669.12 455.80 655.86
  Q 456.74 651.78 456.74 649.43
  Q 456.74 581.07 456.77 512.67
  A 0.52 0.51 89.4 0 1 457.27 512.15
  L 471.71 511.98
  A 0.52 0.50 -0.6 0 0 472.22 511.48
  L 472.20 496.24
  A 0.51 0.50 0.6 0 0 471.70 495.74
  L 422.96 495.67
  A 0.92 0.90 0.3 0 0 422.03 496.57
  L 422.11 511.63
  A 0.53 0.52 89.4 0 0 422.63 512.15
  L 436.70 512.20
  A 0.51 0.48 -0.0 0 1 437.21 512.68
  L 437.19 658.19
  A 0.50 0.50 0.0 0 1 436.69 658.69
  Z
  M 538.06 658.19
  L 538.03 512.56
  A 0.51 0.50 -90.0 0 1 538.53 512.05
  L 552.87 512.07
  A 0.52 0.49 -0.0 0 0 553.39 511.58
  L 553.38 496.34
  A 0.50 0.48 -1.1 0 0 552.86 495.86
  C 536.50 496.31 520.18 495.40 503.80 495.96
  A 0.53 0.52 -1.1 0 0 503.29 496.48
  L 503.34 511.59
  A 0.53 0.50 88.9 0 0 503.85 512.11
  L 516.89 511.89
  A 1.58 1.52 -0.6 0 1 518.50 513.41
  L 518.50 657.84
  A 0.97 0.94 -0.3 0 1 517.54 658.78
  L 503.88 658.87
  A 0.52 0.50 -0.5 0 0 503.36 659.38
  L 503.40 674.46
  A 0.51 0.50 0.0 0 0 503.91 674.96
  L 603.70 674.97
  A 0.51 0.49 0.0 0 0 604.21 674.48
  L 604.21 631.30
  A 0.50 0.49 89.4 0 0 603.71 630.80
  L 588.57 630.87
  A 0.50 0.50 0.0 0 0 588.07 631.37
  L 587.98 658.20
  A 0.51 0.50 -90.0 0 1 587.48 658.71
  L 538.57 658.69
  A 0.51 0.50 0.0 0 1 538.06 658.19
  Z"
/>
<path fill="#dedede" d="
  M 258.12 326.84
  C 259.89 290.47 288.37 261.73 324.50 258.25
  Q 332.70 257.46 351.51 258.19
  A 0.31 0.30 -73.9 0 1 351.76 258.65
  Q 335.26 287.45 318.62 316.07
  Q 317.60 317.82 315.84 318.84
  Q 287.22 335.31 258.67 351.79
  A 0.31 0.31 74.2 0 1 258.21 351.53
  Q 257.64 336.64 258.12 326.84
  Z"
/>
<path fill="#dedede" d="
  M 579.92 258.55
  Q 578.97 258.00 580.07 258.00
  L 639.23 258.01
  A 0.87 0.86 75.0 0 1 639.98 258.45
  L 669.86 310.18
  Q 670.15 310.68 669.64 310.39
  L 579.92 258.55
  Z"
/>
<path fill="#dedede" d="
  M 741.36 351.76
  C 721.83 340.53 702.43 328.63 682.64 317.98
  A 1.00 0.94 0.8 0 1 682.23 317.58
  L 648.20 258.55
  A 0.30 0.29 -14.7 0 1 648.46 258.11
  Q 668.11 257.78 672.44 258.01
  C 711.81 260.17 741.58 291.45 741.98 330.75
  Q 742.10 342.82 741.81 351.50
  A 0.31 0.30 -74.2 0 1 741.36 351.76
  Z"
/>
<path fill="#61777f" d="
  M 450.19 361.55
  L 437.56 361.51
  A 1.75 1.32 -20.8 0 1 436.63 361.24
  Q 434.49 359.70 436.41 357.83
  A 1.32 1.13 19.6 0 1 437.28 357.50
  L 450.43 357.47
  A 0.49 0.49 89.4 0 0 450.92 356.97
  Q 450.35 339.83 467.50 340.21
  A 0.49 0.48 -88.8 0 0 467.99 339.73
  L 468.24 326.55
  A 1.07 1.06 71.9 0 1 468.65 325.73
  Q 470.29 324.48 471.74 325.87
  A 1.24 1.14 -69.7 0 1 472.09 326.73
  L 472.27 339.71
  A 0.50 0.50 0.0 0 0 472.77 340.21
  L 482.46 340.24
  A 0.51 0.50 -90.0 0 0 482.96 339.73
  L 482.96 327.24
  A 1.83 1.34 68.9 0 1 483.21 326.32
  Q 484.78 323.99 486.72 326.17
  A 1.42 1.12 -70.7 0 1 487.02 327.04
  L 487.09 339.61
  A 0.53 0.50 90.0 0 0 487.59 340.14
  L 497.35 340.14
  A 0.54 0.48 -89.4 0 0 497.83 339.61
  L 498.00 326.77
  A 1.13 1.08 -20.1 0 1 498.41 325.94
  C 501.24 323.64 502.03 326.70 502.01 328.82
  Q 501.97 334.26 502.03 339.71
  A 0.52 0.51 89.4 0 0 502.54 340.22
  L 512.22 340.21
  A 0.51 0.50 -90.0 0 0 512.72 339.70
  L 512.74 327.06
  A 1.57 1.25 69.5 0 1 513.04 326.14
  Q 514.57 324.21 516.42 325.93
  A 1.26 1.03 -72.2 0 1 516.76 326.79
  L 516.78 339.70
  A 0.51 0.50 90.0 0 0 517.28 340.21
  L 527.21 340.21
  A 0.51 0.51 0.0 0 0 527.72 339.70
  L 527.75 326.55
  A 1.06 0.95 73.5 0 1 528.14 325.73
  Q 529.81 324.50 531.29 325.87
  A 1.22 1.09 -70.9 0 1 531.65 326.73
  L 531.77 339.95
  A 0.49 0.47 88.9 0 0 532.26 340.44
  Q 549.54 339.95 549.11 357.13
  A 0.51 0.50 -88.9 0 0 549.60 357.65
  Q 554.98 357.82 560.19 357.77
  C 561.62 357.75 564.01 357.40 564.20 359.29
  Q 564.44 361.74 561.97 361.74
  L 549.54 361.78
  A 0.51 0.51 90.0 0 0 549.03 362.29
  L 549.04 371.97
  A 0.51 0.50 0.6 0 0 549.54 372.47
  Q 555.33 372.53 561.10 372.49
  C 563.39 372.47 565.59 373.98 563.33 376.18
  A 1.30 1.14 20.2 0 1 562.47 376.51
  L 549.81 376.53
  A 0.52 0.50 0.0 0 0 549.29 377.03
  L 549.35 386.89
  A 0.53 0.52 0.0 0 0 549.88 387.41
  L 562.94 387.49
  A 0.96 0.84 -13.9 0 1 563.72 387.89
  Q 565.71 391.11 561.76 391.48
  Q 558.89 391.76 550.03 391.36
  A 0.65 0.57 5.7 0 0 549.38 391.82
  L 549.12 393.21
  A 0.61 0.54 -84.3 0 1 548.58 393.71
  L 523.86 393.71
  A 1.38 1.32 -65.1 0 0 522.96 394.06
  L 516.59 399.90
  A 0.82 0.79 33.8 0 1 515.76 400.05
  Q 510.42 398.02 506.74 400.93
  C 498.76 407.21 506.57 419.56 515.44 414.96
  Q 521.96 411.57 519.39 403.70
  A 0.86 0.78 59.9 0 1 519.57 402.86
  L 524.42 398.09
  A 1.32 1.12 19.2 0 1 525.30 397.75
  L 548.45 397.77
  A 0.51 0.51 89.4 0 1 548.96 398.27
  L 549.04 401.73
  A 0.51 0.50 88.9 0 0 549.55 402.23
  Q 558.84 402.21 561.43 402.31
  Q 565.48 402.45 563.49 405.81
  A 0.93 0.88 13.8 0 1 562.72 406.25
  L 549.53 406.27
  A 0.53 0.49 -88.8 0 0 549.04 406.78
  L 548.88 412.45
  A 0.53 0.51 0.6 0 1 548.35 412.95
  L 523.57 413.01
  A 1.21 1.14 20.4 0 0 522.71 413.37
  L 518.10 418.06
  A 1.22 1.10 20.0 0 1 517.26 418.40
  L 502.54 418.40
  A 1.32 1.08 -18.8 0 1 501.68 418.08
  L 496.08 412.60
  A 1.29 1.15 64.3 0 0 495.24 412.25
  L 490.33 412.22
  A 0.74 0.71 79.2 0 1 489.66 411.74
  C 484.05 396.98 464.89 412.78 476.74 420.96
  C 481.50 424.23 487.35 422.27 489.52 416.87
  A 0.84 0.66 -76.9 0 1 490.19 416.33
  L 493.60 416.32
  A 1.36 0.69 55.2 0 1 494.42 416.76
  L 499.92 422.16
  A 1.29 1.13 -19.7 0 0 500.79 422.50
  L 518.69 422.48
  A 1.24 1.14 -65.8 0 0 519.53 422.12
  L 524.38 417.32
  A 1.18 1.11 21.5 0 1 525.23 416.98
  L 562.19 417.30
  A 1.45 1.31 -21.4 0 1 563.09 417.64
  C 568.80 422.80 550.30 421.27 549.30 421.28
  A 0.50 0.49 88.8 0 0 548.82 421.79
  Q 549.34 439.05 532.03 438.31
  A 0.48 0.48 1.1 0 0 531.53 438.79
  C 531.51 439.94 533.11 458.24 527.80 452.58
  A 1.34 1.07 -71.7 0 1 527.48 451.71
  L 527.41 438.88
  A 0.52 0.51 90.0 0 0 526.90 438.36
  L 517.11 438.35
  A 0.54 0.51 90.0 0 0 516.60 438.89
  L 516.53 451.98
  A 1.17 1.00 73.3 0 1 516.17 452.80
  Q 514.31 454.37 513.10 452.81
  C 511.91 451.28 512.48 441.36 512.41 438.87
  A 0.53 0.52 89.4 0 0 511.89 438.35
  L 502.29 438.29
  A 0.52 0.51 -89.4 0 0 501.78 438.80
  L 501.71 451.70
  A 1.80 1.80 -3.8 0 1 500.15 453.48
  Q 497.42 453.85 497.74 450.75
  Q 497.95 448.66 497.66 438.87
  A 0.53 0.51 89.4 0 0 497.15 438.35
  L 487.36 438.35
  A 0.53 0.51 90.0 0 0 486.85 438.88
  L 486.77 451.69
  A 1.37 1.06 72.2 0 1 486.45 452.57
  C 481.17 458.09 482.70 440.15 482.66 438.88
  A 0.55 0.52 88.9 0 0 482.14 438.35
  L 472.62 438.35
  A 0.53 0.52 90.0 0 0 472.10 438.88
  L 472.05 451.32
  A 2.30 2.19 77.6 0 1 470.83 453.33
  Q 467.87 454.79 467.98 450.75
  Q 468.14 444.80 467.88 438.85
  A 0.52 0.51 87.7 0 0 467.36 438.36
  Q 450.25 438.93 450.70 421.79
  A 0.49 0.49 -88.3 0 0 450.22 421.28
  C 449.00 421.27 431.17 422.86 436.42 417.58
  A 1.27 1.08 19.0 0 1 437.28 417.24
  L 450.19 417.22
  A 0.52 0.50 0.0 0 0 450.71 416.72
  L 450.65 406.86
  A 0.52 0.51 0.0 0 0 450.13 406.35
  L 437.49 406.29
  A 1.64 1.12 -17.8 0 1 436.58 406.02
  Q 434.84 404.69 436.10 402.89
  A 1.01 0.99 16.7 0 1 436.90 402.47
  L 450.09 402.27
  A 0.53 0.50 0.5 0 0 450.62 401.78
  L 450.71 392.03
  A 0.52 0.50 0.0 0 0 450.19 391.53
  L 437.31 391.47
  A 1.56 1.55 -6.9 0 1 435.80 390.29
  Q 435.03 387.23 438.25 387.48
  Q 441.57 387.73 450.06 387.38
  A 0.60 0.56 1.0 0 0 450.63 386.86
  L 450.81 384.02
  A 0.53 0.49 -88.1 0 1 451.30 383.52
  L 468.52 383.49
  A 1.21 1.11 -20.9 0 1 469.38 383.83
  L 474.20 388.63
  A 1.24 1.17 66.4 0 0 475.05 388.99
  L 485.71 389.03
  A 0.63 0.63 82.9 0 1 486.32 389.51
  Q 487.63 394.81 492.50 395.99
  C 502.55 398.42 507.28 383.43 497.10 380.03
  Q 490.64 377.86 486.81 384.47
  A 0.91 0.83 -74.0 0 1 486.06 384.93
  L 476.56 384.96
  A 1.27 1.09 63.8 0 1 475.70 384.59
  L 471.04 379.88
  A 1.25 1.17 65.8 0 0 470.20 379.53
  Q 461.47 379.47 452.74 379.51
  C 450.90 379.52 450.29 378.91 450.66 377.08
  A 0.41 0.39 -83.4 0 0 450.29 376.58
  L 437.29 376.52
  A 1.33 1.11 -18.2 0 1 436.43 376.18
  C 431.25 370.87 448.95 372.49 450.21 372.48
  A 0.52 0.49 -88.8 0 0 450.70 371.98
  L 450.85 368.86
  A 0.55 0.54 1.1 0 1 451.40 368.34
  L 466.76 368.45
  A 1.51 1.13 19.9 0 0 467.65 368.18
  L 480.41 358.07
  A 1.48 1.33 -62.0 0 1 481.29 357.75
  L 499.96 357.76
  A 0.74 0.73 78.6 0 1 500.64 358.22
  C 506.78 373.08 526.03 356.24 512.80 348.43
  Q 507.18 345.12 502.05 350.57
  C 501.38 351.28 501.16 352.40 500.53 353.20
  A 1.07 0.92 16.7 0 1 499.70 353.57
  L 480.50 353.47
  A 1.49 1.37 24.0 0 0 479.61 353.77
  L 466.86 363.92
  A 1.51 1.35 -61.9 0 1 465.96 364.25
  L 451.32 364.24
  A 0.53 0.52 -1.1 0 1 450.79 363.74
  L 450.71 362.06
  A 0.53 0.52 88.9 0 0 450.19 361.55
  Z
  M 521.69 351.90
  C 527.49 352.83 536.69 349.94 536.90 359.31
  Q 537.08 367.56 536.97 375.84
  C 536.95 377.73 537.48 380.22 540.03 378.74
  A 1.74 1.74 75.7 0 0 540.91 377.26
  C 541.08 371.17 542.25 358.03 539.16 353.08
  C 535.60 347.40 529.28 348.07 521.93 348.31
  A 1.44 1.13 17.8 0 0 521.04 348.64
  Q 519.51 350.04 520.83 351.47
  A 1.61 1.19 -9.8 0 0 521.69 351.90
  Z
  M 458.93 420.24
  C 459.12 425.83 463.52 430.13 469.07 430.36
  C 470.13 430.41 483.85 431.83 478.58 426.82
  A 1.30 1.14 -20.2 0 0 477.72 426.49
  C 471.58 426.47 463.27 428.38 463.03 419.17
  Q 462.72 407.25 462.76 395.31
  A 1.24 1.09 -70.9 0 0 462.41 394.45
  Q 460.80 392.95 459.40 394.42
  A 1.46 1.14 73.9 0 0 459.05 395.29
  Q 458.50 407.80 458.93 420.24
  Z"
/>
<path fill="#dedede" d="
  M 258.73 419.96
  Q 258.01 421.20 258.01 419.76
  L 258.02 360.78
  A 0.87 0.86 75.0 0 1 258.45 360.03
  L 310.01 330.26
  Q 310.70 329.86 310.30 330.55
  L 258.73 419.96
  Z"
/>
<path fill="#dedede" d="
  M 690.25 330.35
  L 741.85 360.15
  A 0.31 0.31 14.9 0 1 742.00 360.42
  L 742.01 420.00
  A 0.31 0.31 31.7 0 1 741.43 420.16
  L 689.83 330.77
  A 0.31 0.31 -87.5 0 1 690.25 330.35
  Z"
/>
<path fill="#dedede" d="
  M 520.83 351.47
  Q 519.51 350.04 521.04 348.64
  A 1.44 1.13 17.8 0 1 521.93 348.31
  C 529.28 348.07 535.60 347.40 539.16 353.08
  C 542.25 358.03 541.08 371.17 540.91 377.26
  A 1.74 1.74 75.7 0 1 540.03 378.74
  C 537.48 380.22 536.95 377.73 536.97 375.84
  Q 537.08 367.56 536.90 359.31
  C 536.69 349.94 527.49 352.83 521.69 351.90
  A 1.61 1.19 -9.8 0 1 520.83 351.47
  Z"
/>
<circle fill="#61777f" cx="508.75" cy="355.65" r="4.34"/>
<path fill="#dedede" d="
  M 202.47 468.02
  C 188.34 435.41 198.47 395.80 229.79 376.81
  Q 240.15 370.54 250.46 364.66
  A 0.37 0.36 75.3 0 1 251.00 364.98
  Q 250.99 398.06 251.01 431.13
  Q 251.01 433.21 249.97 435.02
  Q 233.46 463.74 216.83 492.36
  A 0.31 0.30 -45.6 0 1 216.31 492.37
  Q 205.25 474.46 202.47 468.02
  Z"
/>
<path fill="#dedede" d="
  M 780.87 384.88
  C 805.40 407.88 810.89 444.04 794.69 473.45
  Q 789.42 483.02 783.71 492.37
  A 0.30 0.29 45.9 0 1 783.20 492.36
  Q 766.54 463.70 750.02 435.01
  Q 749.01 433.25 749.01 431.21
  Q 748.99 398.23 749.01 365.24
  A 0.56 0.55 -75.5 0 1 749.83 364.75
  C 760.23 370.55 772.06 376.61 780.87 384.88
  Z"
/>
<circle fill="#61777f" cx="494.47" cy="387.82" r="4.33"/>
<path fill="#dedede" d="
  M 469.07 430.36
  C 463.52 430.13 459.12 425.83 458.93 420.24
  Q 458.50 407.80 459.05 395.29
  A 1.46 1.14 73.9 0 1 459.40 394.42
  Q 460.80 392.95 462.41 394.45
  A 1.24 1.09 -70.9 0 1 462.76 395.31
  Q 462.72 407.25 463.03 419.17
  C 463.27 428.38 471.58 426.47 477.72 426.49
  A 1.30 1.14 -20.2 0 1 478.58 426.82
  C 483.85 431.83 470.13 430.41 469.07 430.36
  Z"
/>
<circle fill="#61777f" cx="511.76" cy="407.52" r="4.34"/>
<circle fill="#61777f" cx="481.59" cy="413.98" r="4.34"/>
<path fill="#dedede" d="
  M 250.42 551.78
  L 220.59 500.18
  A 0.31 0.31 45.0 0 1 220.59 499.86
  L 250.42 448.26
  A 0.31 0.31 -29.8 0 1 251.00 448.41
  L 251.00 551.63
  A 0.31 0.31 31.3 0 1 250.42 551.78
  Z"
/>
<path fill="#dedede" d="
  M 749.63 448.34
  L 779.41 499.81
  A 0.34 0.34 -45.0 0 1 779.41 500.15
  L 749.63 551.62
  A 0.34 0.34 60.0 0 1 749.00 551.45
  L 749.00 448.51
  A 0.34 0.34 -59.7 0 1 749.63 448.34
  Z"
/>
<path fill="#61777f" d="
  M 437.19 658.19
  L 437.21 512.68
  A 0.51 0.48 0.0 0 0 436.70 512.20
  L 422.63 512.15
  A 0.53 0.52 89.4 0 1 422.11 511.63
  L 422.03 496.57
  A 0.92 0.90 0.3 0 1 422.96 495.67
  L 471.70 495.74
  A 0.51 0.50 0.6 0 1 472.20 496.24
  L 472.22 511.48
  A 0.52 0.50 -0.6 0 1 471.71 511.98
  L 457.27 512.15
  A 0.52 0.51 89.4 0 0 456.77 512.67
  Q 456.74 581.07 456.74 649.43
  Q 456.74 651.78 455.80 655.86
  C 452.72 669.12 444.38 674.38 431.33 674.77
  Q 413.87 675.30 396.39 674.87
  A 0.53 0.51 0.6 0 1 395.87 674.36
  L 395.80 659.26
  A 0.51 0.49 -0.6 0 1 396.31 658.76
  L 436.69 658.69
  A 0.50 0.50 0.0 0 0 437.19 658.19
  Z"
/>
<path fill="#61777f" d="
  M 538.57 658.69
  L 587.48 658.71
  A 0.51 0.50 -90.0 0 0 587.98 658.20
  L 588.07 631.37
  A 0.50 0.50 0.0 0 1 588.57 630.87
  L 603.71 630.80
  A 0.50 0.49 89.4 0 1 604.21 631.30
  L 604.21 674.48
  A 0.51 0.49 -0.0 0 1 603.70 674.97
  L 503.91 674.96
  A 0.51 0.50 0.0 0 1 503.40 674.46
  L 503.36 659.38
  A 0.52 0.50 -0.5 0 1 503.88 658.87
  L 517.54 658.78
  A 0.97 0.94 -0.3 0 0 518.50 657.84
  L 518.50 513.41
  A 1.58 1.52 -0.6 0 0 516.89 511.89
  L 503.85 512.11
  A 0.53 0.50 88.9 0 1 503.34 511.59
  L 503.29 496.48
  A 0.53 0.52 -1.1 0 1 503.80 495.96
  C 520.18 495.40 536.50 496.31 552.86 495.86
  A 0.50 0.48 -1.1 0 1 553.38 496.34
  L 553.39 511.58
  A 0.52 0.49 -0.0 0 1 552.87 512.07
  L 538.53 512.05
  A 0.51 0.50 -90.0 0 0 538.03 512.56
  L 538.06 658.19
  A 0.51 0.50 0.0 0 0 538.57 658.69
  Z"
/>
<path fill="#dedede" d="
  M 229.46 623.04
  C 198.57 603.99 188.15 564.34 202.56 531.80
  Q 205.81 524.44 216.31 507.61
  A 0.31 0.30 46.8 0 1 216.83 507.63
  Q 233.42 536.29 249.95 564.95
  Q 250.99 566.75 250.99 568.83
  Q 251.04 601.90 250.95 634.97
  A 0.30 0.30 -76.0 0 1 250.51 635.24
  Q 239.79 629.40 229.46 623.04
  Z"
/>
<path fill="#dedede" d="
  M 783.17 507.54
  Q 783.51 506.95 783.85 507.54
  Q 789.12 516.76 794.38 526.08
  C 812.62 558.41 804.04 598.38 774.45 620.39
  C 767.76 625.36 757.88 630.56 749.63 635.37
  Q 749.02 635.72 749.02 635.02
  Q 748.95 601.83 749.05 568.66
  Q 749.05 566.57 750.10 564.77
  Q 766.57 536.35 783.17 507.54
  Z"
/>
<path fill="#dedede" d="
  M 309.73 669.60
  L 258.16 639.83
  A 0.31 0.31 -75.0 0 1 258.01 639.56
  L 258.00 580.01
  A 0.31 0.31 -60.1 0 1 258.58 579.86
  L 310.15 669.18
  A 0.31 0.31 -0.1 0 1 309.73 669.60
  Z"
/>
<path fill="#dedede" d="
  M 741.97 580.10
  L 741.98 639.63
  A 0.32 0.32 75.0 0 1 741.82 639.91
  L 690.26 669.66
  A 0.32 0.32 -89.6 0 1 689.82 669.23
  L 741.37 579.94
  A 0.32 0.32 -32.6 0 1 741.97 580.10
  Z"
/>
<path fill="#dedede" d="
  M 327.44 741.88
  C 290.72 740.27 261.77 711.97 258.25 675.49
  Q 257.45 667.29 258.20 648.48
  A 0.31 0.30 16.4 0 1 258.66 648.23
  Q 287.46 664.72 316.06 681.39
  Q 317.82 682.41 318.83 684.17
  Q 335.30 712.78 351.78 741.34
  A 0.30 0.30 73.5 0 1 351.54 741.79
  Q 337.62 742.33 327.44 741.88
  Z"
/>
<path fill="#dedede" d="
  M 682.06 682.73
  A 1.84 1.84 0.0 0 1 682.75 682.04
  L 741.35 648.22
  A 0.30 0.30 73.9 0 1 741.80 648.47
  Q 742.38 665.23 741.92 672.69
  C 739.50 711.83 708.97 741.18 670.01 741.96
  Q 659.22 742.17 648.46 741.80
  A 0.30 0.30 -73.5 0 1 648.22 741.35
  L 682.06 682.73
  Z"
/>
<path fill="#dedede" d="
  M 419.83 741.20
  Q 421.22 742.00 419.62 742.00
  L 360.76 741.99
  A 0.87 0.86 -15.0 0 1 360.01 741.56
  L 330.13 689.85
  Q 329.76 689.20 330.41 689.57
  L 419.83 741.20
  Z"
/>
<path fill="#dedede" d="
  M 669.53 690.33
  L 639.81 741.87
  A 0.31 0.31 15.0 0 1 639.54 742.02
  L 580.04 742.00
  A 0.31 0.31 -61.8 0 1 579.88 741.42
  L 669.11 689.91
  A 0.31 0.31 73.0 0 1 669.53 690.33
  Z"
/>
<path fill="#dedede" d="
  M 473.46 794.72
  C 439.02 813.27 396.09 802.87 375.62 768.59
  Q 370.01 759.19 364.76 749.50
  A 0.30 0.30 74.8 0 1 365.01 749.05
  Q 398.22 748.92 431.32 749.05
  Q 433.42 749.05 435.24 750.10
  Q 463.86 766.60 492.39 783.17
  A 0.31 0.30 44.4 0 1 492.40 783.69
  Q 481.12 790.59 473.46 794.72
  Z"
/>
<path fill="#dedede" d="
  M 448.42 749.80
  Q 447.03 749.00 448.63 749.00
  L 551.71 749.00
  Q 552.88 749.00 551.86 749.59
  L 500.70 779.09
  A 1.41 1.39 44.7 0 1 499.29 779.09
  L 448.42 749.80
  Z"
/>
<path fill="#dedede" d="
  M 507.55 783.84
  A 0.36 0.36 45.3 0 1 507.55 783.21
  Q 536.34 766.60 565.00 750.04
  Q 566.76 749.02 568.79 749.01
  Q 601.88 748.95 634.99 749.05
  A 0.30 0.30 13.7 0 1 635.26 749.49
  Q 630.33 758.54 625.12 767.34
  C 606.76 798.36 569.31 812.40 535.55 798.99
  C 526.93 795.56 516.66 789.11 507.55 783.84
  Z"
/>
</svg>
