<?xml version="1.0" encoding="UTF-8" standalone="no"?>
<!DOCTYPE svg PUBLIC "-//W3C//DTD SVG 1.1//EN" "http://www.w3.org/Graphics/SVG/1.1/DTD/svg11.dtd">
<svg xmlns="http://www.w3.org/2000/svg" version="1.1" viewBox="0 0 1000 1125">
<path fill="#000000" d="
  M 1000.00 459.06
  L 1000.00 467.31
  C 998.89 490.53 992.31 509.89 981.01 529.88
  Q 971.89 546.02 962.50 562.02
  A 0.86 0.86 -45.0 0 0 962.50 562.88
  Q 972.56 580.30 982.61 597.86
  Q 998.65 625.89 1000.00 658.31
  L 1000.00 665.56
  Q 998.07 708.98 971.90 742.07
  C 952.95 766.05 926.43 778.69 900.99 793.27
  A 1.44 1.43 75.4 0 0 900.26 794.52
  C 900.24 812.10 901.34 831.36 899.56 848.23
  C 893.32 907.68 847.28 953.71 788.45 961.74
  Q 780.84 962.78 768.51 962.76
  Q 750.03 962.72 731.54 962.78
  A 0.70 0.69 -75.0 0 0 730.94 963.13
  C 723.65 975.88 714.50 992.22 708.74 1001.41
  C 672.05 1060.01 597.85 1079.67 536.93 1045.76
  Q 518.77 1035.65 500.75 1025.17
  A 1.43 1.43 0.0 0 0 499.31 1025.17
  C 484.35 1033.83 468.37 1044.11 453.25 1050.91
  C 392.22 1078.38 322.37 1055.18 288.91 997.37
  Q 279.01 980.28 269.01 963.19
  A 0.88 0.87 -14.7 0 0 268.25 962.75
  C 250.50 962.75 231.08 963.87 214.04 962.04
  C 155.92 955.81 108.25 910.06 100.75 851.39
  C 98.43 833.24 99.71 812.89 99.77 794.33
  A 1.15 1.15 -75.2 0 0 99.19 793.33
  Q 83.55 784.31 67.95 775.26
  C 26.61 751.28 3.09 715.20 0.00 666.44
  L 0.00 657.69
  Q 1.47 625.55 16.26 599.80
  Q 26.83 581.37 37.47 562.97
  A 0.94 0.94 90.0 0 0 37.47 562.03
  Q 27.63 544.99 17.77 527.96
  Q 1.54 499.93 0.00 467.44
  L 0.00 458.69
  C 3.07 409.52 26.75 373.57 68.40 349.46
  Q 83.73 340.59 98.87 331.83
  A 1.79 1.77 -15.3 0 0 99.77 330.27
  C 99.70 311.90 98.46 291.73 100.73 273.86
  C 108.15 215.56 155.23 169.29 213.77 162.96
  C 230.81 161.12 250.31 162.26 268.01 162.24
  A 1.32 1.32 -75.2 0 0 269.16 161.57
  C 277.37 147.53 285.66 131.59 294.06 119.29
  C 328.82 68.37 393.58 48.44 450.97 72.99
  Q 457.35 75.72 468.69 82.19
  Q 484.13 91.00 499.43 99.91
  A 1.23 1.21 44.6 0 0 500.66 99.91
  Q 516.21 90.85 531.82 81.92
  Q 542.77 75.67 549.60 72.81
  C 604.80 49.70 668.20 66.92 703.45 115.69
  C 713.29 129.30 722.13 146.44 730.80 161.59
  A 1.33 1.32 -14.8 0 0 731.95 162.25
  C 750.31 162.25 770.53 160.87 788.40 163.25
  C 847.01 171.06 892.91 216.96 899.50 276.02
  C 901.42 293.30 900.24 312.90 900.26 330.80
  A 0.87 0.86 -75.0 0 0 900.69 331.55
  Q 918.30 341.69 935.08 351.40
  C 974.33 374.11 997.87 413.51 1000.00 459.06
  Z
  M 282.82 161.99
  Q 337.30 162.55 390.89 162.09
  Q 393.00 162.07 394.82 161.02
  Q 441.34 134.03 487.90 107.22
  A 0.59 0.58 -44.6 0 0 487.91 106.21
  C 473.84 97.93 458.53 88.10 444.21 82.30
  C 393.38 61.69 336.20 79.24 304.77 123.45
  C 297.30 133.96 289.66 148.68 282.34 161.15
  A 0.56 0.56 15.3 0 0 282.82 161.99
  Z
  M 698.17 128.28
  C 675.94 91.87 635.51 72.17 593.70 73.95
  C 561.36 75.32 538.52 90.98 512.04 106.19
  Q 511.17 106.69 512.04 107.20
  L 607.06 162.02
  Q 607.49 162.27 607.99 162.27
  L 717.33 162.25
  A 0.49 0.49 -14.8 0 0 717.76 161.52
  Q 708.22 144.73 698.17 128.28
  Z
  M 416.42 161.44
  A 0.43 0.43 31.2 0 0 416.63 162.25
  L 583.49 162.25
  A 0.43 0.43 60.1 0 0 583.70 161.44
  L 500.27 113.30
  A 0.43 0.43 -45.0 0 0 499.85 113.30
  L 416.42 161.44
  Z
  M 256.06 184.31
  Q 260.30 176.95 261.84 173.84
  A 0.32 0.31 13.4 0 0 261.55 173.39
  Q 238.14 172.91 223.26 173.48
  C 166.22 175.67 119.97 218.34 112.00 274.54
  C 109.84 289.80 111.03 307.96 110.80 324.20
  Q 110.79 324.99 111.47 324.59
  L 206.01 269.98
  Q 206.92 269.45 207.45 268.54
  Q 231.71 226.58 256.06 184.31
  Z
  M 275.05 173.99
  L 227.05 257.04
  Q 226.36 258.24 227.56 257.54
  L 372.13 174.08
  Q 373.15 173.50 371.97 173.50
  L 275.90 173.50
  A 1.00 0.98 -74.4 0 0 275.05 173.99
  Z
  M 215.66 847.73
  C 275.07 881.77 334.30 916.12 393.57 950.42
  Q 395.33 951.44 397.36 951.44
  Q 499.89 951.55 602.41 951.49
  Q 604.50 951.49 606.30 950.45
  Q 695.35 899.07 784.43 847.62
  A 1.93 1.89 -1.0 0 0 785.12 846.92
  Q 836.48 757.86 888.00 668.82
  Q 889.06 667.00 889.07 664.91
  Q 889.55 562.50 889.00 460.10
  Q 888.99 458.00 887.95 456.19
  Q 836.95 367.80 785.87 279.40
  Q 784.86 277.64 783.09 276.62
  Q 694.48 225.39 605.77 174.26
  Q 603.97 173.23 601.90 173.23
  Q 499.32 173.27 396.74 173.24
  A 2.88 2.84 -59.8 0 0 395.30 173.63
  Q 306.22 225.05 216.91 276.63
  Q 215.15 277.65 214.13 279.41
  Q 162.64 368.53 111.18 457.70
  Q 110.75 458.43 110.75 459.28
  L 110.75 665.92
  A 2.29 2.22 -60.8 0 0 111.05 667.05
  L 214.98 847.04
  A 2.04 1.86 87.8 0 0 215.66 847.73
  Z
  M 772.71 257.61
  Q 773.63 258.14 773.10 257.23
  L 724.96 173.90
  A 0.91 0.89 -15.0 0 0 724.18 173.46
  L 627.74 173.40
  Q 626.74 173.40 627.60 173.90
  L 772.71 257.61
  Z
  M 793.42 269.60
  Q 841.07 297.19 888.68 324.60
  A 0.22 0.21 -75.4 0 0 889.00 324.41
  C 888.99 308.43 889.93 290.90 888.25 276.29
  C 882.27 224.50 840.94 181.74 788.88 174.56
  C 773.30 172.41 754.91 173.49 738.47 173.43
  Q 737.65 173.43 738.06 174.14
  L 792.97 269.27
  A 0.70 0.54 4.0 0 0 793.24 269.51
  Q 793.33 269.55 793.42 269.60
  Z
  M 110.75 434.88
  A 0.31 0.31 -28.8 0 0 111.33 435.04
  L 195.11 289.92
  A 0.31 0.31 0.6 0 0 194.69 289.49
  L 110.89 337.86
  A 0.31 0.31 -15.0 0 0 110.74 338.13
  L 110.75 434.88
  Z
  M 805.28 289.41
  A 0.32 0.32 89.6 0 0 804.84 289.84
  L 888.40 434.56
  A 0.32 0.32 -60.9 0 0 888.99 434.40
  L 888.98 337.93
  A 0.32 0.32 14.7 0 0 888.82 337.65
  L 805.28 289.41
  Z
  M 65.06 364.54
  C 12.74 397.53 -3.69 466.41 26.17 519.63
  Q 34.91 535.21 43.84 550.68
  A 0.43 0.43 0.0 0 0 44.58 550.68
  Q 71.64 503.87 98.76 456.73
  Q 99.77 454.97 99.77 452.93
  Q 99.76 399.02 99.71 345.02
  A 0.29 0.29 75.7 0 0 99.28 344.76
  Q 76.59 357.27 65.06 364.54
  Z
  M 951.60 377.40
  C 937.14 363.84 918.03 354.33 900.71 344.57
  A 0.31 0.31 -75.0 0 0 900.25 344.84
  L 900.25 454.26
  Q 900.25 455.04 900.64 455.72
  L 955.39 550.56
  A 0.49 0.49 -44.8 0 0 956.24 550.56
  C 962.64 539.52 971.14 525.18 975.28 517.24
  C 999.63 470.51 990.26 413.64 951.60 377.40
  Z
  M 99.15 646.51
  A 0.32 0.32 30.7 0 0 99.75 646.35
  L 99.75 478.63
  A 0.32 0.32 60.0 0 0 99.15 478.47
  L 50.79 562.33
  A 0.32 0.32 90.0 0 0 50.79 562.65
  L 99.15 646.51
  Z
  M 900.83 478.50
  A 0.31 0.31 30.0 0 0 900.25 478.65
  L 900.25 646.33
  A 0.31 0.31 60.3 0 0 900.83 646.48
  L 949.24 562.65
  A 0.31 0.31 -44.9 0 0 949.24 562.33
  L 900.83 478.50
  Z
  M 26.09 605.55
  C -5.20 661.67 14.60 731.99 70.89 764.15
  Q 85.10 772.27 99.26 780.47
  Q 99.75 780.76 99.75 780.19
  L 99.77 670.53
  Q 99.77 670.03 99.52 669.60
  L 44.55 574.30
  Q 44.19 573.68 43.83 574.30
  Q 34.84 589.87 26.09 605.55
  Z
  M 955.13 574.78
  L 900.77 668.98
  A 3.72 3.68 60.3 0 0 900.27 670.84
  L 900.31 780.00
  A 0.30 0.29 -14.7 0 0 900.75 780.25
  Q 928.65 764.88 936.52 759.53
  C 983.84 727.41 1001.99 666.97 978.65 614.73
  C 973.06 602.21 963.98 587.79 956.40 574.78
  A 0.74 0.73 -44.9 0 0 955.13 574.78
  Z
  M 888.44 690.24
  L 804.65 835.41
  Q 804.19 836.20 804.98 835.75
  L 888.55 787.47
  A 0.87 0.86 75.0 0 0 888.98 786.72
  L 889.01 690.40
  Q 889.01 689.26 888.44 690.24
  Z
  M 194.64 835.49
  A 0.33 0.33 0.3 0 0 195.09 835.04
  L 111.37 690.03
  A 0.33 0.33 29.7 0 0 110.75 690.19
  L 110.75 786.87
  A 0.33 0.33 -74.9 0 0 110.92 787.16
  L 194.64 835.49
  Z
  M 261.40 951.50
  A 0.54 0.53 -14.8 0 0 261.87 950.70
  Q 234.99 904.15 207.96 857.31
  Q 206.94 855.55 205.19 854.54
  Q 158.22 827.40 111.48 800.42
  A 0.45 0.45 15.4 0 0 110.81 800.80
  C 110.61 816.98 109.90 834.96 111.93 850.21
  C 118.87 902.23 159.58 942.92 211.37 950.41
  C 226.83 952.64 244.94 951.52 261.40 951.50
  Z
  M 792.90 855.91
  Q 765.26 903.54 738.07 950.83
  A 0.45 0.45 15.2 0 0 738.46 951.51
  C 754.26 951.49 771.72 952.43 786.22 950.73
  C 839.37 944.50 880.71 902.83 888.01 850.20
  C 890.13 834.94 889.01 816.90 888.93 800.73
  A 0.30 0.28 -15.3 0 0 888.49 800.49
  L 793.23 855.47
  A 0.70 0.54 -86.0 0 0 792.99 855.74
  Q 792.95 855.83 792.90 855.91
  Z
  M 275.78 951.49
  C 307.80 951.47 340.32 950.50 372.26 951.76
  Q 373.67 951.82 372.45 951.11
  L 227.23 867.26
  Q 226.33 866.74 226.85 867.64
  L 275.03 951.06
  A 0.87 0.86 -15.0 0 0 275.78 951.49
  Z
  M 772.49 867.51
  L 627.58 951.12
  Q 626.77 951.58 627.71 951.58
  L 724.04 951.52
  A 1.20 1.18 14.8 0 0 725.07 950.93
  L 772.97 867.99
  Q 773.63 866.86 772.49 867.51
  Z
  M 584.01 963.35
  A 0.32 0.32 -60.0 0 0 583.85 962.75
  L 416.25 962.75
  A 0.32 0.32 -30.0 0 0 416.09 963.35
  L 499.89 1011.73
  A 0.32 0.32 0.0 0 0 500.21 1011.73
  L 584.01 963.35
  Z
  M 302.41 997.64
  C 331.90 1045.53 395.18 1064.18 446.43 1041.78
  C 459.63 1036.00 474.46 1026.63 487.91 1018.82
  A 0.62 0.62 -45.0 0 0 487.91 1017.74
  Q 441.15 990.76 394.50 963.79
  Q 392.74 962.77 390.70 962.77
  Q 336.85 962.73 282.98 962.76
  A 0.65 0.65 75.1 0 0 282.42 963.73
  Q 292.02 980.76 302.41 997.64
  Z
  M 512.00 1018.66
  Q 527.59 1027.85 542.71 1036.27
  C 566.57 1049.57 593.80 1054.44 620.64 1049.25
  Q 673.96 1038.93 701.86 990.88
  Q 709.85 977.13 717.91 963.44
  Q 718.31 962.75 717.51 962.75
  L 608.24 962.75
  Q 607.47 962.75 606.80 963.13
  L 512.01 1017.86
  A 0.47 0.46 -44.6 0 0 512.00 1018.66
  Z"
/>
<path fill="#61777f" d="
  M 420.43 412.06
  Q 411.08 411.98 401.70 411.98
  C 398.61 411.98 395.20 411.16 396.73 407.18
  Q 397.39 405.47 399.26 405.47
  L 420.38 405.41
  A 0.51 0.50 -0.0 0 0 420.89 404.91
  L 420.89 388.61
  A 0.52 0.51 0.6 0 0 420.38 388.10
  Q 410.86 387.91 401.47 388.01
  C 398.78 388.04 395.89 387.43 396.46 384.13
  Q 396.91 381.49 399.60 381.49
  L 420.36 381.44
  A 0.52 0.52 -88.9 0 0 420.88 380.94
  L 421.12 375.57
  A 0.54 0.53 -88.3 0 1 421.65 375.06
  L 449.44 375.02
  A 1.28 1.13 65.0 0 1 450.29 375.39
  L 458.92 383.91
  A 1.24 1.20 -22.2 0 0 459.77 384.25
  L 477.11 384.15
  A 0.69 0.67 -8.7 0 1 477.76 384.61
  C 480.72 393.76 488.84 398.48 497.70 393.97
  Q 501.61 391.98 503.39 387.86
  C 510.35 371.79 487.48 360.14 478.77 376.93
  A 0.85 0.81 -76.6 0 1 478.05 377.40
  L 462.05 377.47
  A 1.32 1.11 63.6 0 1 461.20 377.10
  L 452.83 368.83
  A 1.27 1.14 -20.3 0 0 451.97 368.49
  L 421.56 368.49
  A 0.52 0.50 88.8 0 1 421.06 367.99
  L 420.89 364.55
  A 0.56 0.52 -0.5 0 0 420.34 364.05
  Q 411.01 363.97 401.74 363.98
  C 399.13 363.99 396.32 364.20 396.44 360.57
  Q 396.53 357.73 399.81 357.56
  Q 405.01 357.29 420.37 357.59
  A 0.51 0.50 -88.3 0 0 420.88 357.10
  L 421.12 351.30
  A 0.53 0.53 -88.3 0 1 421.65 350.80
  L 447.70 350.73
  A 1.42 1.36 -63.7 0 0 448.58 350.41
  L 468.91 334.08
  A 1.41 1.37 24.7 0 1 469.79 333.77
  L 500.25 333.75
  A 0.73 0.70 79.0 0 1 500.91 334.22
  C 503.83 342.05 512.70 346.65 520.25 342.45
  C 529.61 337.26 530.18 323.54 520.47 318.49
  C 512.51 314.35 503.95 318.47 500.88 326.78
  A 0.71 0.71 9.9 0 1 500.21 327.25
  L 467.54 327.26
  A 1.43 1.40 -63.6 0 0 466.66 327.57
  L 446.34 343.90
  A 1.49 1.42 -62.7 0 1 445.45 344.21
  L 421.55 344.23
  A 0.53 0.50 88.2 0 1 421.05 343.73
  L 420.89 340.30
  A 0.55 0.52 -0.5 0 0 420.35 339.80
  C 415.27 339.76 401.45 340.96 397.48 338.99
  A 1.40 1.23 -89.7 0 1 396.86 338.28
  C 395.20 334.01 398.42 333.28 401.75 333.27
  Q 411.23 333.25 420.70 333.23
  A 0.51 0.51 -89.4 0 0 421.21 332.73
  C 421.27 329.36 421.02 325.62 421.73 322.55
  C 424.91 308.78 435.40 305.59 448.23 305.71
  A 0.50 0.50 -89.4 0 0 448.73 305.22
  Q 448.77 295.39 448.75 285.61
  C 448.74 283.12 449.89 280.52 452.76 281.36
  Q 455.27 282.10 455.28 284.77
  L 455.34 305.30
  A 0.50 0.50 -88.8 0 0 455.85 305.79
  L 472.14 305.65
  A 0.51 0.51 0.0 0 0 472.65 305.14
  L 472.72 284.06
  A 1.74 1.36 68.0 0 1 472.98 283.15
  Q 475.33 279.77 478.40 282.45
  A 1.54 1.40 -77.0 0 1 478.86 283.27
  C 480.11 289.52 479.17 297.42 479.35 305.29
  A 0.51 0.50 89.4 0 0 479.85 305.79
  L 496.12 305.65
  A 0.50 0.50 -67.5 0 0 496.61 305.14
  Q 496.25 287.98 496.55 284.84
  Q 496.98 280.48 501.06 281.52
  Q 502.99 282.00 502.99 283.99
  L 503.01 305.30
  A 0.53 0.52 0.0 0 0 503.54 305.82
  L 519.98 305.72
  A 0.51 0.50 -90.0 0 0 520.48 305.21
  L 520.53 284.06
  Q 520.53 281.90 522.65 281.47
  Q 526.84 280.60 526.88 285.00
  Q 526.98 295.22 527.02 305.28
  A 0.46 0.45 90.0 0 0 527.47 305.74
  L 543.98 305.71
  A 0.50 0.50 0.0 0 0 544.48 305.21
  L 544.52 283.57
  Q 544.53 280.90 547.76 281.26
  Q 550.78 281.60 550.83 284.75
  Q 550.99 295.23 551.02 305.70
  A 0.51 0.51 0.6 0 0 551.52 306.21
  C 555.26 306.28 559.34 305.93 562.76 306.86
  Q 575.37 310.28 578.30 323.10
  C 579.00 326.15 578.70 329.87 578.79 333.23
  A 0.51 0.50 89.4 0 0 579.29 333.73
  L 600.70 333.74
  A 1.61 1.37 -23.1 0 1 601.60 334.02
  Q 604.96 336.56 601.91 339.58
  A 1.36 1.24 18.9 0 1 601.06 339.95
  Q 590.85 340.65 580.06 339.90
  A 1.20 1.17 2.0 0 0 578.78 341.07
  L 578.86 357.08
  A 0.50 0.49 89.4 0 0 579.36 357.58
  Q 588.79 357.43 598.08 357.52
  C 601.01 357.55 604.40 358.23 603.03 362.06
  Q 602.32 364.02 600.20 364.03
  L 579.62 364.09
  A 0.51 0.50 -0.0 0 0 579.11 364.59
  L 579.11 380.89
  A 0.51 0.51 0.0 0 0 579.62 381.40
  L 600.53 381.46
  A 2.96 2.86 -14.9 0 1 603.01 382.84
  C 605.14 386.35 601.97 388.01 598.87 388.00
  Q 589.21 387.98 579.56 388.02
  A 0.52 0.51 0.6 0 0 579.04 388.52
  L 578.96 390.99
  A 0.52 0.51 -88.8 0 1 578.45 391.49
  L 538.28 391.49
  A 1.30 1.28 -65.5 0 0 537.42 391.82
  L 526.46 401.70
  A 0.84 0.82 33.7 0 1 525.61 401.86
  Q 514.51 397.67 508.43 405.48
  C 499.36 417.13 512.42 432.64 525.35 425.65
  C 531.98 422.07 534.11 414.46 530.86 407.42
  A 0.71 0.70 56.0 0 1 531.01 406.63
  L 539.66 398.36
  A 1.28 1.25 -66.1 0 1 540.53 398.01
  L 578.08 398.04
  A 0.55 0.52 0.0 0 1 578.62 398.55
  L 578.79 404.97
  A 0.52 0.51 88.8 0 0 579.30 405.47
  L 600.46 405.47
  A 1.64 1.43 -24.0 0 1 601.37 405.75
  Q 605.20 408.47 601.67 411.57
  A 1.35 1.29 23.2 0 1 600.79 411.90
  L 579.29 412.01
  A 0.50 0.50 -89.4 0 0 578.79 412.50
  L 578.62 421.94
  A 0.52 0.51 0.6 0 1 578.10 422.44
  L 537.80 422.48
  A 1.27 1.13 19.8 0 0 536.93 422.83
  L 528.80 430.85
  A 1.28 1.13 -65.0 0 1 527.95 431.22
  L 503.55 431.23
  A 1.28 1.13 65.0 0 1 502.70 430.86
  L 493.36 421.57
  A 1.29 1.08 -18.9 0 0 492.50 421.24
  L 484.14 421.16
  A 0.76 0.68 79.1 0 1 483.48 420.66
  C 480.31 412.11 469.96 407.72 462.49 413.52
  C 449.20 423.82 462.09 444.20 476.74 436.42
  Q 481.47 433.90 483.48 428.33
  A 0.76 0.66 -78.8 0 1 484.13 427.83
  L 489.69 427.78
  A 1.31 1.05 63.1 0 1 490.53 428.16
  L 499.71 437.36
  A 1.23 1.20 67.0 0 0 500.57 437.72
  L 530.45 437.73
  A 1.29 1.12 -64.4 0 0 531.29 437.37
  L 539.41 429.37
  A 1.33 1.21 20.4 0 1 540.28 429.02
  Q 568.04 428.79 578.06 429.15
  Q 592.48 429.68 600.45 429.44
  A 1.30 1.16 -22.4 0 1 601.34 429.75
  Q 604.87 432.91 601.14 435.51
  A 1.70 1.45 23.9 0 1 600.23 435.78
  L 578.95 435.88
  A 0.50 0.49 89.4 0 0 578.46 436.39
  C 578.85 449.11 575.27 459.65 561.77 462.78
  C 558.59 463.52 554.67 463.15 551.08 463.36
  A 0.54 0.53 -1.7 0 0 550.57 463.89
  L 550.54 485.20
  A 1.53 1.23 69.2 0 1 550.25 486.09
  Q 547.38 489.69 544.53 486.12
  A 1.52 1.35 -66.7 0 1 544.23 485.22
  L 544.24 463.99
  A 0.73 0.72 90.0 0 0 543.52 463.26
  L 527.25 463.29
  A 0.52 0.50 -89.4 0 0 526.75 463.80
  Q 526.74 473.92 526.57 483.98
  Q 526.48 488.80 522.35 487.64
  Q 520.23 487.05 520.22 484.81
  L 520.16 463.87
  A 0.51 0.50 90.0 0 0 519.66 463.36
  L 503.36 463.36
  A 0.51 0.51 0.0 0 0 502.85 463.87
  L 502.79 484.78
  A 2.96 2.86 75.1 0 1 501.41 487.26
  C 497.93 489.37 496.22 486.23 496.24 483.13
  Q 496.32 473.50 496.16 463.89
  A 0.54 0.50 89.4 0 0 495.66 463.36
  L 479.40 463.39
  A 0.55 0.52 -88.9 0 0 478.88 463.92
  Q 478.64 473.90 478.76 483.72
  C 478.79 486.07 477.64 488.47 475.01 487.85
  Q 472.28 487.21 472.28 484.43
  L 472.28 463.92
  A 0.51 0.49 -89.4 0 0 471.79 463.40
  L 455.40 463.40
  A 0.52 0.51 -89.4 0 0 454.89 463.91
  Q 454.63 473.71 454.77 483.36
  C 454.87 489.65 448.46 489.45 448.50 483.20
  Q 448.55 473.55 448.43 463.89
  A 0.54 0.53 1.7 0 0 447.92 463.36
  C 444.20 463.16 440.11 463.59 436.78 462.66
  Q 424.80 459.33 421.57 447.34
  C 420.68 444.03 421.11 440.02 420.89 436.33
  A 0.55 0.54 -1.1 0 0 420.35 435.82
  Q 410.59 435.68 400.91 435.77
  C 398.11 435.80 395.77 434.93 396.53 431.65
  Q 397.02 429.49 399.23 429.49
  L 420.49 429.50
  A 0.49 0.49 0.0 0 0 420.98 429.01
  L 420.94 412.56
  A 0.51 0.50 0.0 0 0 420.43 412.06
  Z
  M 533.69 324.04
  A 2.79 2.78 69.3 0 0 535.70 324.95
  C 545.90 325.12 559.20 321.83 559.23 337.29
  Q 559.26 350.77 559.25 364.25
  Q 559.25 368.17 562.97 368.25
  Q 565.74 368.31 565.74 365.53
  Q 565.74 352.36 565.76 338.89
  Q 565.77 332.13 564.39 328.79
  C 559.41 316.75 547.92 318.60 537.18 318.45
  C 533.74 318.40 530.59 320.64 533.69 324.04
  Z
  M 440.46 447.03
  C 446.90 452.20 456.43 450.83 464.01 450.72
  Q 466.36 450.69 466.96 448.41
  Q 467.58 446.02 465.68 444.64
  A 1.63 1.27 -20.8 0 0 464.77 444.36
  C 459.76 444.32 449.88 445.30 445.62 442.81
  C 440.49 439.81 440.28 435.49 440.27 429.28
  Q 440.23 411.77 440.26 394.24
  Q 440.26 392.42 438.52 391.91
  Q 434.00 390.57 433.80 395.56
  Q 433.59 400.83 433.77 426.51
  C 433.84 436.03 433.56 441.49 440.46 447.03
  Z"
/>
<circle fill="#61777f" cx="514.05" cy="330.41" r="7.03"/>
<circle fill="#61777f" cx="491.10" cy="382.16" r="7.02"/>
<circle fill="#61777f" cx="518.90" cy="413.85" r="7.02"/>
<circle fill="#61777f" cx="470.42" cy="424.21" r="7.02"/>
<path fill="#61777f" d="
  M 398.44 582.06
  L 375.10 581.91
  A 0.50 0.50 0.0 0 1 374.60 581.41
  L 374.54 556.44
  A 0.69 0.68 -0.4 0 1 375.23 555.75
  L 454.95 555.75
  A 0.51 0.51 0.0 0 1 455.46 556.26
  L 455.40 581.42
  A 0.52 0.51 -0.6 0 1 454.89 581.93
  L 431.01 582.16
  A 0.50 0.50 0.0 0 0 430.51 582.66
  Q 430.52 692.70 430.46 802.68
  Q 430.45 814.77 424.48 825.35
  C 416.51 839.47 403.71 843.72 388.25 843.75
  Q 360.57 843.82 332.88 843.68
  A 0.50 0.50 0.0 0 1 332.38 843.18
  L 332.39 818.30
  A 0.52 0.49 -0.0 0 1 332.91 817.81
  L 398.47 817.70
  A 0.50 0.50 0.0 0 0 398.97 817.20
  L 398.94 582.56
  A 0.50 0.50 0.0 0 0 398.44 582.06
  Z"
/>
<path fill="#61777f" d="
  M 528.94 582.06
  L 505.93 581.91
  A 0.50 0.50 0.0 0 1 505.43 581.41
  L 505.45 556.39
  A 0.62 0.62 0.0 0 1 506.07 555.77
  L 585.35 555.80
  A 0.51 0.51 0.0 0 1 585.86 556.31
  L 585.89 581.38
  A 0.51 0.51 0.0 0 1 585.38 581.89
  L 561.51 582.05
  A 0.51 0.51 -0.6 0 0 561.01 582.56
  L 561.00 817.43
  A 0.32 0.31 90.0 0 0 561.31 817.75
  L 641.02 817.75
  A 0.73 0.73 0.0 0 0 641.75 817.02
  L 641.75 773.31
  A 0.51 0.51 0.0 0 1 642.26 772.80
  L 667.19 772.88
  A 0.52 0.51 -89.4 0 1 667.69 773.40
  L 667.73 843.44
  A 0.31 0.30 -0.0 0 1 667.42 843.74
  L 506.05 843.74
  A 0.50 0.50 0.0 0 1 505.55 843.24
  L 505.43 818.36
  A 0.51 0.49 -90.0 0 1 505.92 817.85
  L 528.97 817.70
  A 0.51 0.50 -1.1 0 0 529.47 817.19
  L 529.44 582.56
  A 0.50 0.50 0.0 0 0 528.94 582.06
  Z"
/>
</svg>
